<svg xmlns="http://www.w3.org/2000/svg" viewBox="0 0 100.3 75.15">
  <title>ElevatedProcurement_White</title>
  <g id="Layer_1" data-name="Layer 1">
    <g>
      <path d="M95.43,93.93a1.36,1.36,0,0,1-.77-.25,1.31,1.31,0,0,1-.28-1.82l14.83-20.34a1.28,1.28,0,0,1,1.94-.17l6.59,6.3,19.71-19.72a1.34,1.34,0,0,1,1.1-.37,1.32,1.32,0,0,1,.95.65l7.34,13,41.59-36.74a1.3,1.3,0,1,1,1.72,1.94l-42.8,37.8a1.26,1.26,0,0,1-1.07.31,1.3,1.3,0,0,1-.92-.64L138.08,61,118.67,80.39a1.3,1.3,0,0,1-1.81,0l-6.43-6.16-14,19.14a1.31,1.31,0,0,1-1,.54Z" transform="translate(-94.13 -18.78)" fill="#fff"/>
      <polygon points="90.81 13.85 100.3 12.52 96.71 21.39 90.81 13.85" fill="#fff"/>
      <path d="M144.68,44.55s2.11-7.92,4.52-10.18,3.61-3.65,9.44-3.88,12,.52,15.17-.1a32.67,32.67,0,0,0,7.55-3.14s-2,5.25-5.1,6-2.79,1-9.45,1.55c-2.21.2-5.43.27-8.92.74-3,.4-8,1-10.76,4.73C146.41,41.28,144.68,44.55,144.68,44.55Zm6.71,17.75s6.13-10.58,8.32-13.17c4.19-5,8.75-5,10.7-3.54,2.47,1.81,3.05,5.5,3.05,5.5s.15-1.9.26-3.24a21.72,21.72,0,0,0-2.09-9.37c-1.66-3.43-4.92-2.14-7-1s-7.09,6.57-8.66,8.68-3.44,3.64-6.32,13.09c-1,3.33-2.17,12.6-2.17,12.6Zm11.54-37s2.2,4.91,6.8,3.06,1.92-6.25.71-7.2-4.06-1.51-5.37-.79S162.3,21.84,162.93,25.32ZM178.81,24l-1.56,11.49L176,44.9l.65-.56s4-21.26,4.56-24-1.66-1.14-1.66-1.14Z" transform="translate(-94.13 -18.78)" fill="#fff"/>
    </g>
  </g>
</svg>
