<?xml version="1.0" encoding="utf-8"?>
<!-- Generator: Adobe Illustrator 21.1.0, SVG Export Plug-In . SVG Version: 6.00 Build 0)  -->
<svg version="1.1" id="Layer_1" xmlns="http://www.w3.org/2000/svg" xmlns:xlink="http://www.w3.org/1999/xlink" x="0px" y="0px"
	 viewBox="0 0 67.8 65.3" style="enable-background:new 0 0 67.8 65.3;" xml:space="preserve">
<style type="text/css">
	.st0{fill:#202840;}
</style>
<title>letter_2</title>
<g id="Layer_2">
	<g id="Icons">
		<path class="st0" d="M66.4,10.9L51.6,1c-1.2-0.8-2.8-1.1-4.4-1H1.5C0.7,0,0,0.4,0,0.9c0,0,0,0,0,0v63.4c0,0.5,0.6,1,1.4,1
			c0,0,0,0,0.1,0h64.9c0.8,0,1.5-0.4,1.5-0.9c0,0,0,0,0-0.1V13.8C68.1,12.8,67.5,11.7,66.4,10.9z M51.6,4L62,10.9H51.6V4z
			 M64.9,63.3H3V2h45.7v9.9c0,0.5,0.6,1,1.4,1c0,0,0.1,0,0.1,0h14.7V63.3z"/>
	</g>
</g>
</svg>
