<svg xmlns="http://www.w3.org/2000/svg" viewBox="0 0 106 97.35">
  <title>letter_1</title>
  <g id="Layer_2" data-name="Layer 2">
    <g id="Icons">
      <path d="M64.94,94.4H3V3H48.7V17.7a1.44,1.44,0,0,0,1.48,1.48H64.94V50.1l3-3V20.65a5.42,5.42,0,0,0-1.48-4.43L51.65,1.47A5.42,5.42,0,0,0,47.23,0H1.48A1.45,1.45,0,0,0,0,1.47v94.4a1.44,1.44,0,0,0,1.48,1.48H66.41a1.44,1.44,0,0,0,1.48-1.48V66.3l-3,3Z" fill="#003e8e"/>
      <path d="M45.1,80.44l.24-.24c2.91.36,14.34-8,24.24-17.89l-7-7c-9.9,9.9-18.25,21.32-17.9,24.24l-.25.25A4.38,4.38,0,0,1,45.1,80.44Z" fill="#003e8e"/>
      <path d="M104,31.41l-2.65,2.65L99.58,32.3l2.65-2.65c3.53-3.53,1.77-5.3,0-7.06s-3.52-3.52-7.06,0l-3.53,3.53L63.38,54.41l7,7L97.82,34.07l1.76,1.76L88.09,47.32c-.88.88.88,2.65,1.76,1.76l15.91-15.91C106.64,32.29,104.88,30.53,104,31.41Z" fill="#003e8e"/>
    </g>
  </g>
</svg>
