<svg xmlns="http://www.w3.org/2000/svg" viewBox="0 0 787 273.23" class="mtn" id="Mtn2">
  <title>mtn-2</title>
  <g id="Layer_2" data-name="Layer 2">
        <path d="M787,214v59.23H0V5.07c9,.52,18.82,1.34,29.36,2.58,72.61,8.49,241,81.19,241,81.19s40.4,2.34,120.62,11.71,144-9.37,144-9.37S662.53,170.83,787,214Z" fill="#1a65a7"/>
        <path d="M787,214v59.23H709.8l-21.39-9.53c-41.19-18.46-71.48-41.59-93.73-64.85a42.43,42.43,0,0,1,3.52-5.21l-6,2.64c-33.06-35.51-47.57-71-53.51-90.24a42.9,42.9,0,0,1,3.42-5L537.77,103A108.94,108.94,0,0,1,535,91.18S662.53,170.83,787,214Z" fill="#4682b8"/>
        <path d="M481.44,105.42a2.26,2.26,0,1,0,.73,0v2.22h-.73Z" fill="#1a65a7"/>
        <polygon points="477.62 104.83 477.99 105.45 478.76 106.8 477.45 106.8 477.45 109.3 476.96 109.3 476.96 106.8 475.65 106.8 476.43 105.45 476.79 104.83 475.65 104.83 476.43 103.48 476.69 103.03 475.65 103.03 476.43 101.67 477.21 100.32 477.99 101.67 478.76 103.03 477.73 103.03 477.99 103.48 478.76 104.83 477.62 104.83 477.62 104.83" fill="#1a65a7"/>
        <polygon points="3.26 4.5 3.63 5.13 4.4 6.48 3.09 6.48 3.09 8.98 2.6 8.98 2.6 6.48 1.29 6.48 2.06 5.13 2.43 4.5 1.29 4.5 2.06 3.15 2.33 2.7 1.29 2.7 2.06 1.35 2.85 0 3.63 1.35 4.4 2.7 3.37 2.7 3.63 3.15 4.4 4.5 3.26 4.5 3.26 4.5" fill="#1a65a7"/>
        <path d="M9.23,5.42a1,1,0,0,1-.76-1.89,1,1,0,1,1,2.07,0,1,1,0,0,1-.36,2L10,5.42V7.64H9.23Z" fill="#1a65a7"/>
        <polygon points="273.27 86.85 273.63 87.47 274.41 88.82 273.1 88.82 273.1 91.32 272.6 91.32 272.6 88.82 271.29 88.82 272.07 87.47 272.43 86.85 271.29 86.85 272.07 85.5 272.33 85.05 271.29 85.05 272.07 83.7 272.85 82.35 273.63 83.7 274.41 85.05 273.37 85.05 273.63 85.5 274.41 86.85 273.27 86.85 273.27 86.85" fill="#1a65a7"/>
        <path d="M279.24,89.06a2.26,2.26,0,1,0,.73,0v2.22h-.73Z" fill="#1a65a7"/>
        <polygon points="275.42 88.51 275.79 89.14 276.56 90.49 275.25 90.49 275.25 92.99 274.76 92.99 274.76 90.49 273.45 90.49 274.23 89.14 274.59 88.51 273.45 88.51 274.23 87.16 274.49 86.71 273.45 86.71 274.23 85.36 275 84.01 275.79 85.36 276.56 86.71 275.52 86.71 275.79 87.16 276.56 88.51 275.42 88.51 275.42 88.51" fill="#1a65a7"/>
        <path d="M281.39,90.7a2.26,2.26,0,1,0,.73,0v2.22h-.73Z" fill="#1a65a7"/>
        <polygon points="294.94 88.55 295.3 89.17 296.08 90.52 294.77 90.52 294.77 93.02 294.27 93.02 294.27 90.52 292.96 90.52 293.74 89.17 294.1 88.55 292.96 88.55 293.74 87.2 294 86.75 292.96 86.75 293.74 85.4 294.52 84.05 295.3 85.4 296.08 86.75 295.04 86.75 295.3 87.2 296.08 88.55 294.94 88.55 294.94 88.55" fill="#1a65a7"/>
        <path d="M308.2,90.76a2.26,2.26,0,1,0,.73,0V93h-.73Z" fill="#1a65a7"/>
        <polygon points="304.39 90.21 304.75 90.84 305.53 92.19 304.22 92.19 304.22 94.69 303.72 94.69 303.72 92.19 302.41 92.19 303.19 90.84 303.55 90.21 302.41 90.21 303.19 88.86 303.45 88.41 302.41 88.41 303.19 87.06 303.97 85.71 304.75 87.06 305.53 88.41 304.49 88.41 304.75 88.86 305.53 90.21 304.39 90.21 304.39 90.21" fill="#1a65a7"/>
        <path d="M299.67,92.42a2.26,2.26,0,1,0,.73,0v2.27h-.73Z" fill="#1a65a7"/>
        <polygon points="389.63 97.44 389.99 98.06 390.77 99.41 389.46 99.41 389.46 101.91 388.97 101.91 388.97 99.41 387.65 99.41 388.43 98.06 388.8 97.44 387.65 97.44 388.43 96.09 388.69 95.64 387.65 95.64 388.43 94.29 389.21 92.94 389.99 94.29 390.77 95.64 389.73 95.64 389.99 96.09 390.77 97.44 389.63 97.44 389.63 97.44" fill="#1a65a7"/>
        <path d="M395.6,99.7a2.26,2.26,0,1,0,.73,0v2.22h-.73Z" fill="#1a65a7"/>
        <polygon points="391.79 99.1 392.15 99.73 392.93 101.08 391.62 101.08 391.62 103.58 391.12 103.58 391.12 101.08 389.81 101.08 390.59 99.73 390.95 99.1 389.81 99.1 390.59 97.75 390.85 97.3 389.81 97.3 390.59 95.95 391.37 94.6 392.15 95.95 392.93 97.3 391.89 97.3 392.15 97.75 392.93 99.1 391.79 99.1 391.79 99.1" fill="#1a65a7"/>
        <path d="M397.76,101.32a2.27,2.27,0,1,0,.73,0v2.22h-.73Z" fill="#1a65a7"/>
        <polygon points="411.31 99.14 411.67 99.76 412.45 101.11 411.13 101.11 411.13 103.61 410.64 103.61 410.64 101.11 409.33 101.11 410.11 99.76 410.47 99.14 409.33 99.14 410.11 97.79 410.37 97.34 409.33 97.34 410.11 95.99 410.89 94.64 411.67 95.99 412.45 97.34 411.41 97.34 411.67 97.79 412.45 99.14 411.31 99.14 411.31 99.14" fill="#1a65a7"/>
        <path d="M424.57,101.35a2.26,2.26,0,1,0,.73,0v2.22h-.73Z" fill="#1a65a7"/>
        <polygon points="420.75 100.8 421.11 101.43 421.89 102.78 420.58 102.78 420.58 105.28 420.09 105.28 420.09 102.78 418.77 102.78 419.56 101.43 419.92 100.8 418.77 100.8 419.56 99.45 419.81 99 418.77 99 419.56 97.65 420.33 96.3 421.11 97.65 421.89 99 420.85 99 421.11 99.45 421.89 100.8 420.75 100.8 420.75 100.8" fill="#1a65a7"/>
        <path d="M416,103a2.26,2.26,0,1,0,.73,0v2.22H416Z" fill="#1a65a7"/>
        <polygon points="299.57 90.64 299.93 91.26 300.71 92.61 299.4 92.61 299.4 95.11 298.9 95.11 298.9 92.61 297.59 92.61 298.37 91.26 298.73 90.64 297.59 90.64 298.37 89.29 298.63 88.83 297.59 88.83 298.37 87.48 299.15 86.13 299.93 87.48 300.71 88.83 299.67 88.83 299.93 89.29 300.71 90.64 299.57 90.64 299.57 90.64" fill="#1a65a7"/>
        <path d="M305.54,92.85a2.26,2.26,0,1,0,.73,0v2.22h-.73Z" fill="#1a65a7"/>
        <polygon points="301.73 92.3 302.09 92.92 302.87 94.27 301.56 94.27 301.56 96.77 301.06 96.77 301.06 94.27 299.75 94.27 300.53 92.92 300.89 92.3 299.75 92.3 300.53 90.95 300.79 90.5 299.75 90.5 300.53 89.15 301.31 87.8 302.09 89.15 302.87 90.5 301.83 90.5 302.09 90.95 302.87 92.3 301.73 92.3 301.73 92.3" fill="#1a65a7"/>
        <path d="M307.7,94.51a2.26,2.26,0,1,0,.73,0V96.7h-.73Z" fill="#1a65a7"/>
        <polygon points="321.24 92.34 321.61 92.96 322.38 94.31 321.07 94.31 321.07 96.81 320.58 96.81 320.58 94.31 319.27 94.31 320.05 92.96 320.41 92.34 319.27 92.34 320.05 90.98 320.31 90.54 319.27 90.54 320.05 89.18 320.82 87.83 321.61 89.18 322.38 90.54 321.34 90.54 321.61 90.98 322.38 92.34 321.24 92.34 321.24 92.34" fill="#1a65a7"/>
        <path d="M334.5,94.55a2.26,2.26,0,1,0,.73,0v2.22h-.73Z" fill="#1a65a7"/>
        <polygon points="330.69 94 331.05 94.62 331.83 95.97 330.52 95.97 330.52 98.47 330.02 98.47 330.02 95.97 328.71 95.97 329.49 94.62 329.86 94 328.71 94 329.49 92.65 329.75 92.2 328.71 92.2 329.49 90.85 330.27 89.5 331.05 90.85 331.83 92.2 330.79 92.2 331.05 92.65 331.83 94 330.69 94 330.69 94" fill="#1a65a7"/>
        <path d="M326,96.21a2.26,2.26,0,1,0,.73,0v2.21H326Z" fill="#1a65a7"/>
        <polygon points="405.88 100.42 406.24 101.05 407.02 102.4 405.71 102.4 405.71 104.9 405.21 104.9 405.21 102.4 403.9 102.4 404.68 101.05 405.04 100.42 403.9 100.42 404.68 99.07 404.94 98.62 403.9 98.62 404.68 97.27 405.46 95.92 406.24 97.27 407.02 98.62 405.98 98.62 406.24 99.07 407.02 100.42 405.88 100.42 405.88 100.42" fill="#1a65a7"/>
        <path d="M411.85,102.64a2.26,2.26,0,1,0,.73,0v2.22h-.73Z" fill="#1a65a7"/>
        <polygon points="408.03 102.08 408.4 102.71 409.18 104.06 407.87 104.06 407.87 106.56 407.37 106.56 407.37 104.06 406.06 104.06 406.84 102.71 407.2 102.08 406.06 102.08 406.84 100.73 407.1 100.28 406.06 100.28 406.84 98.93 407.62 97.58 408.4 98.93 409.18 100.28 408.14 100.28 408.4 100.73 409.18 102.08 408.03 102.08 408.03 102.08" fill="#1a65a7"/>
        <path d="M414,104.3a2.26,2.26,0,1,0,.73,0v2.22H414Z" fill="#1a65a7"/>
        <polygon points="427.55 102.12 427.91 102.75 428.69 104.1 427.38 104.1 427.38 106.6 426.88 106.6 426.88 104.1 425.57 104.1 426.35 102.75 426.71 102.12 425.57 102.12 426.35 100.77 426.61 100.32 425.57 100.32 426.35 98.97 427.13 97.62 427.91 98.97 428.69 100.32 427.65 100.32 427.91 100.77 428.69 102.12 427.55 102.12 427.55 102.12" fill="#1a65a7"/>
        <path d="M440.81,104.34a2.27,2.27,0,1,0,.73,0v2.22h-.73Z" fill="#1a65a7"/>
        <polygon points="437 103.79 437.36 104.41 438.14 105.76 436.83 105.76 436.83 108.26 436.33 108.26 436.33 105.76 435.02 105.76 435.8 104.41 436.16 103.79 435.02 103.79 435.8 102.43 436.06 101.98 435.02 101.98 435.8 100.63 436.58 99.28 437.36 100.63 438.14 101.98 437.1 101.98 437.36 102.43 438.14 103.79 437 103.79 437 103.79" fill="#1a65a7"/>
        <path d="M432.28,106a2.26,2.26,0,1,0,.73,0v2.22h-.73Z" fill="#1a65a7"/>
        <polygon points="446.5 101.46 446.87 102.09 447.64 103.44 446.33 103.44 446.33 105.94 445.84 105.94 445.84 103.44 444.53 103.44 445.31 102.09 445.67 101.46 444.53 101.46 445.31 100.11 445.57 99.66 444.53 99.66 445.31 98.31 446.08 96.96 446.87 98.31 447.64 99.66 446.61 99.66 446.87 100.11 447.64 101.46 446.5 101.46 446.5 101.46" fill="#1a65a7"/>
        <path d="M452.47,103.7a2.27,2.27,0,1,0,.73,0v2.22h-.73Z" fill="#1a65a7"/>
        <polygon points="448.66 103.13 449.02 103.75 449.8 105.1 448.49 105.1 448.49 107.6 448 107.6 448 105.1 446.68 105.1 447.46 103.75 447.82 103.13 446.68 103.13 447.46 101.78 447.72 101.33 446.68 101.33 447.46 99.98 448.24 98.62 449.02 99.98 449.8 101.33 448.76 101.33 449.02 101.78 449.8 103.13 448.66 103.13 448.66 103.13" fill="#1a65a7"/>
        <path d="M454.63,105.34a2.26,2.26,0,1,0,.73,0v2.22h-.73Z" fill="#1a65a7"/>
        <polygon points="468.18 103.16 468.54 103.79 469.32 105.14 468.01 105.14 468.01 107.64 467.51 107.64 467.51 105.14 466.2 105.14 466.98 103.79 467.34 103.16 466.2 103.16 466.98 101.81 467.24 101.36 466.2 101.36 466.98 100.01 467.76 98.66 468.54 100.01 469.32 101.36 468.28 101.36 468.54 101.81 469.32 103.16 468.18 103.16 468.18 103.16" fill="#1a65a7"/>
        <path d="M472.91,107a2.27,2.27,0,1,0,.73,0v2.22h-.73Z" fill="#1a65a7"/>
        <polygon points="344.4 95.8 344.76 96.42 345.54 97.78 344.23 97.78 344.23 100.28 343.73 100.28 343.73 97.78 342.42 97.78 343.2 96.42 343.56 95.8 342.42 95.8 343.2 94.45 343.46 94 342.42 94 343.2 92.65 343.98 91.3 344.76 92.65 345.54 94 344.5 94 344.76 94.45 345.54 95.8 344.4 95.8 344.4 95.8" fill="#1a65a7"/>
        <path d="M350.37,98a2.26,2.26,0,1,0,.73,0v2.22h-.73Z" fill="#1a65a7"/>
        <polygon points="346.56 97.46 346.92 98.09 347.7 99.44 346.39 99.44 346.39 101.94 345.89 101.94 345.89 99.44 344.58 99.44 345.36 98.09 345.72 97.46 344.58 97.46 345.36 96.11 345.62 95.66 344.58 95.66 345.36 94.31 346.14 92.96 346.92 94.31 347.7 95.66 346.66 95.66 346.92 96.11 347.7 97.46 346.56 97.46 346.56 97.46" fill="#1a65a7"/>
        <path d="M352.53,99.7a2.27,2.27,0,1,0,.73,0v2.22h-.73Z" fill="#1a65a7"/>
        <polygon points="366.07 97.5 366.43 98.12 367.21 99.48 365.9 99.48 365.9 101.98 365.4 101.98 365.4 99.48 364.09 99.48 364.87 98.12 365.23 97.5 364.09 97.5 364.87 96.15 365.13 95.7 364.09 95.7 364.87 94.35 365.65 93 366.43 94.35 367.21 95.7 366.17 95.7 366.43 96.15 367.21 97.5 366.07 97.5 366.07 97.5" fill="#1a65a7"/>
        <path d="M379.33,99.7a2.27,2.27,0,1,0,.73,0v2.22h-.73Z" fill="#1a65a7"/>
        <polygon points="375.52 99.16 375.88 99.79 376.66 101.14 375.35 101.14 375.35 103.64 374.85 103.64 374.85 101.14 373.54 101.14 374.32 99.79 374.68 99.16 373.54 99.16 374.32 97.81 374.58 97.36 373.54 97.36 374.32 96.01 375.1 94.66 375.88 96.01 376.66 97.36 375.62 97.36 375.88 97.81 376.66 99.16 375.52 99.16 375.52 99.16" fill="#1a65a7"/>
        <path d="M370.8,101.42a2.27,2.27,0,1,0,.73,0v2.22h-.73Z" fill="#1a65a7"/>
        <polygon points="209.25 62.45 209.61 63.07 210.39 64.42 209.08 64.42 209.08 66.92 208.58 66.92 208.58 64.42 207.27 64.42 208.05 63.07 208.41 62.45 207.27 62.45 208.05 61.1 208.31 60.65 207.27 60.65 208.05 59.3 208.83 57.95 209.61 59.3 210.39 60.65 209.35 60.65 209.61 61.1 210.39 62.45 209.25 62.45 209.25 62.45" fill="#1a65a7"/>
        <path d="M199.94,59.47a2.26,2.26,0,1,0,.73,0V61.7h-.73V59.48Z" fill="#1a65a7"/>
        <polygon points="233.21 72.12 233.57 72.75 234.35 74.1 233.04 74.1 233.04 76.6 232.54 76.6 232.54 74.1 231.23 74.1 232.01 72.75 232.37 72.12 231.23 72.12 232.01 70.77 232.27 70.32 231.23 70.32 232.01 68.97 232.79 67.62 233.57 68.97 234.35 70.32 233.31 70.32 233.57 70.77 234.35 72.12 233.21 72.12 233.21 72.12" fill="#1a65a7"/>
        <path d="M223.91,69.14a2.26,2.26,0,1,0,.73,0v2.22h-.73Z" fill="#1a65a7"/>
        <polygon points="605.54 127.7 605.9 128.32 606.68 129.67 605.37 129.67 605.37 132.17 604.87 132.17 604.87 129.67 603.56 129.67 604.34 128.32 604.7 127.7 603.56 127.7 604.34 126.35 604.6 125.9 603.56 125.9 604.34 124.55 605.12 123.2 605.9 124.55 606.68 125.9 605.64 125.9 605.9 126.35 606.68 127.7 605.54 127.7 605.54 127.7" fill="#4682b8"/>
        <path d="M625.29,141.56a2.27,2.27,0,1,0,.73,0v2.22h-.73Z" fill="#4682b8"/>
        <polygon points="609.2 132.24 609.57 132.87 610.34 134.22 609.03 134.22 609.03 136.72 608.54 136.72 608.54 134.22 607.23 134.22 608 132.87 608.37 132.24 607.23 132.24 608 130.89 608.26 130.44 607.23 130.44 608 129.09 608.78 127.74 609.57 129.09 610.34 130.44 609.3 130.44 609.57 130.89 610.34 132.24 609.2 132.24 609.2 132.24" fill="#4682b8"/>
        <path d="M615.09,138.42a2.27,2.27,0,1,0,.73,0v2.26h-.73Z" fill="#4682b8"/>
        <polygon points="623.16 139.99 623.52 140.62 624.3 141.97 622.99 141.97 622.99 144.47 622.49 144.47 622.49 141.97 621.18 141.97 621.96 140.62 622.32 139.99 621.18 139.99 621.96 138.64 622.22 138.19 621.18 138.19 621.96 136.84 622.74 135.49 623.52 136.84 624.3 138.19 623.26 138.19 623.52 138.64 624.3 139.99 623.16 139.99 623.16 139.99" fill="#4682b8"/>
        <path d="M650.15,155.15a2.26,2.26,0,1,0,.73,0v2.27h-.73Z" fill="#4682b8"/>
        <polygon points="644.96 152.63 645.32 153.25 646.1 154.6 644.79 154.6 644.79 157.1 644.29 157.1 644.29 154.6 642.98 154.6 643.76 153.25 644.12 152.63 642.98 152.63 643.76 151.28 644.02 150.83 642.98 150.83 643.76 149.48 644.54 148.13 645.32 149.48 646.1 150.83 645.06 150.83 645.32 151.28 646.1 152.63 644.96 152.63 644.96 152.63" fill="#4682b8"/>
        <path d="M618.17,136.7a2.27,2.27,0,1,0,.73,0v2.22h-.73Z" fill="#4682b8"/>
        <polygon points="685.85 169.86 686.21 170.48 686.99 171.83 685.68 171.83 685.68 174.33 685.18 174.33 685.18 171.83 683.87 171.83 684.65 170.48 685.01 169.86 683.87 169.86 684.65 168.51 684.91 168.06 683.87 168.06 684.65 166.71 685.43 165.36 686.21 166.71 686.99 168.06 685.95 168.06 686.21 168.51 686.99 169.86 685.85 169.86 685.85 169.86" fill="#4682b8"/>
        <path d="M682.25,170.34a2.26,2.26,0,1,0,.73,0v2.22h-.73Z" fill="#4682b8"/>
        <polygon points="689.51 172.28 689.87 172.9 690.65 174.25 689.34 174.25 689.34 176.75 688.84 176.75 688.84 174.25 687.53 174.25 688.31 172.9 688.67 172.28 687.53 172.28 688.31 170.93 688.57 170.48 687.53 170.48 688.31 169.12 689.09 167.78 689.87 169.12 690.65 170.48 689.61 170.48 689.87 170.93 690.65 172.28 689.51 172.28 689.51 172.28" fill="#4682b8"/>
        <path d="M695.39,178.42a2.26,2.26,0,1,0,.73,0v2.23h-.73v-2.22Z" fill="#4682b8"/>
        <polygon points="703.47 180.03 703.83 180.66 704.61 182 703.29 182 703.29 184.5 702.8 184.5 702.8 182 701.49 182 702.27 180.66 702.63 180.03 701.49 180.03 702.27 178.68 702.53 178.23 701.49 178.23 702.27 176.88 703.05 175.53 703.83 176.88 704.61 178.23 703.57 178.23 703.83 178.68 704.61 180.03 703.47 180.03 703.47 180.03" fill="#4682b8"/>
        <path d="M730.45,195.18a2.26,2.26,0,1,0,.73,0v2.24h-.73Z" fill="#4682b8"/>
        <polygon points="725.26 189.96 725.63 190.59 726.4 191.94 725.09 191.94 725.09 194.44 724.6 194.44 724.6 191.94 723.29 191.94 724.07 190.59 724.43 189.96 723.29 189.96 724.07 188.61 724.33 188.16 723.29 188.16 724.07 186.81 724.85 185.46 725.63 186.81 726.4 188.16 725.37 188.16 725.63 188.61 726.4 189.96 725.26 189.96 725.26 189.96" fill="#4682b8"/>
        <path d="M698.48,176.7a2.27,2.27,0,1,0,.73,0v2.22h-.73Z" fill="#4682b8"/>
        <polygon points="482.46 194.32 482.82 194.95 483.6 196.3 482.29 196.3 482.29 198.8 481.79 198.8 481.79 196.3 480.48 196.3 481.26 194.95 481.62 194.32 480.48 194.32 481.26 192.97 481.52 192.52 480.48 192.52 481.26 191.17 482.04 189.82 482.82 191.17 483.6 192.52 482.56 192.52 482.82 192.97 483.6 194.32 482.46 194.32 482.46 194.32" fill="#00549d"/>
  </g>
</svg>
