<svg xmlns="http://www.w3.org/2000/svg" viewBox="0 0 671.1 174.73" id="Mtn1" class="mtn">
  <title>mtn-1</title>
  <g id="Layer_2" data-name="Layer 2">
        <path d="M564.26,174.73H0V4.82C14.67,12.38,29.3,20.2,41.06,27.2,79.71,50,190.37,40.67,284.64,80.48,326.5,98.14,351.7,99.35,394,78.2c43-21.52,25.91-11.86,99.69,24.59S671.1,174.73,671.1,174.73Z" fill="#003e8e"/>
        <polygon points="13.59 11.14 13.95 11.77 14.73 13.11 13.42 13.11 13.42 15.61 12.92 15.61 12.92 13.11 11.61 13.11 12.39 11.77 12.75 11.14 11.61 11.14 12.39 9.79 12.65 9.34 11.61 9.34 12.39 7.99 13.17 6.64 13.95 7.99 14.73 9.34 13.69 9.34 13.95 9.79 14.73 11.14 13.59 11.14 13.59 11.14" fill="#003e8e"/>
        <polygon points="17.3 11.33 17.66 11.95 18.44 13.3 17.13 13.3 17.13 15.8 16.63 15.8 16.63 13.3 15.32 13.3 16.1 11.95 16.46 11.33 15.32 11.33 16.1 9.98 16.36 9.53 15.32 9.53 16.1 8.17 16.88 6.82 17.66 8.17 18.44 9.53 17.4 9.53 17.66 9.98 18.44 11.33 17.3 11.33 17.3 11.33" fill="#003e8e"/>
        <polygon points="27.62 19.31 27.98 19.94 28.76 21.29 27.45 21.29 27.45 23.79 26.95 23.79 26.95 21.29 25.64 21.29 26.42 19.94 26.79 19.31 25.64 19.31 26.42 17.96 26.68 17.51 25.64 17.51 26.42 16.16 27.2 14.81 27.98 16.16 28.76 17.51 27.72 17.51 27.98 17.96 28.76 19.31 27.62 19.31 27.62 19.31" fill="#003e8e"/>
        <polygon points="69.82 37.08 70.18 37.71 70.96 39.06 69.65 39.06 69.65 41.56 69.15 41.56 69.15 39.06 67.84 39.06 68.62 37.71 68.98 37.08 67.84 37.08 68.62 35.73 68.88 35.28 67.84 35.28 68.62 33.93 69.4 32.58 70.18 33.93 70.96 35.28 69.92 35.28 70.18 35.73 70.96 37.08 69.82 37.08 69.82 37.08" fill="#003e8e"/>
        <polygon points="78.25 37.27 78.61 37.89 79.39 39.24 78.08 39.24 78.08 41.74 77.58 41.74 77.58 39.24 76.27 39.24 77.05 37.89 77.41 37.27 76.27 37.27 77.05 35.91 77.31 35.46 76.27 35.46 77.05 34.11 77.83 32.76 78.61 34.11 79.39 35.46 78.35 35.46 78.61 35.91 79.39 37.27 78.25 37.27 78.25 37.27" fill="#003e8e"/>
        <polygon points="49.61 32.55 49.97 33.17 50.75 34.52 49.44 34.52 49.44 37.02 48.94 37.02 48.94 34.52 47.63 34.52 48.41 33.17 48.77 32.55 47.63 32.55 48.41 31.2 48.67 30.75 47.63 30.75 48.41 29.4 49.19 28.05 49.97 29.4 50.75 30.75 49.71 30.75 49.97 31.2 50.75 32.55 49.61 32.55 49.61 32.55" fill="#003e8e"/>
        <polygon points="92.28 39.74 92.64 40.36 93.42 41.71 92.11 41.71 92.11 44.21 91.61 44.21 91.61 41.71 90.3 41.71 91.08 40.36 91.44 39.74 90.3 39.74 91.08 38.39 91.34 37.94 90.3 37.94 91.08 36.59 91.86 35.24 92.64 36.59 93.42 37.94 92.38 37.94 92.64 38.39 93.42 39.74 92.28 39.74 92.28 39.74" fill="#003e8e"/>
        <polygon points="5.75 4.51 6.11 5.13 6.89 6.48 5.58 6.48 5.58 8.98 5.08 8.98 5.08 6.48 3.77 6.48 4.55 5.13 4.92 4.51 3.77 4.51 4.55 3.16 4.82 2.71 3.77 2.71 4.55 1.36 5.33 0 6.11 1.36 6.89 2.71 5.85 2.71 6.11 3.16 6.89 4.51 5.75 4.51 5.75 4.51" fill="#003e8e"/>
        <polygon points="16.08 12.49 16.44 13.12 17.22 14.47 15.91 14.47 15.91 16.97 15.41 16.97 15.41 14.47 14.1 14.47 14.88 13.12 15.24 12.49 14.1 12.49 14.88 11.14 15.14 10.69 14.1 10.69 14.88 9.34 15.66 7.99 16.44 9.34 17.22 10.69 16.18 10.69 16.44 11.14 17.22 12.49 16.08 12.49 16.08 12.49" fill="#003e8e"/>
        <polygon points="19.78 12.68 20.15 13.3 20.93 14.66 19.61 14.66 19.61 17.16 19.12 17.16 19.12 14.66 17.81 14.66 18.59 13.3 18.95 12.68 17.81 12.68 18.59 11.33 18.85 10.88 17.81 10.88 18.59 9.53 19.37 8.18 20.15 9.53 20.93 10.88 19.89 10.88 20.15 11.33 20.93 12.68 19.78 12.68 19.78 12.68" fill="#003e8e"/>
        <polygon points="30.11 20.67 30.47 21.29 31.25 22.64 29.94 22.64 29.94 25.14 29.44 25.14 29.44 22.64 28.13 22.64 28.91 21.29 29.27 20.67 28.13 20.67 28.91 19.32 29.17 18.87 28.13 18.87 28.91 17.52 29.69 16.17 30.47 17.52 31.25 18.87 30.21 18.87 30.47 19.32 31.25 20.67 30.11 20.67 30.11 20.67" fill="#003e8e"/>
        <polygon points="125.44 43.43 125.8 44.06 126.58 45.41 125.27 45.41 125.27 47.91 124.78 47.91 124.78 45.41 123.47 45.41 124.24 44.06 124.61 43.43 123.47 43.43 124.24 42.09 124.5 41.63 123.47 41.63 124.24 40.28 125.02 38.93 125.8 40.28 126.58 41.63 125.54 41.63 125.8 42.09 126.58 43.43 125.44 43.43 125.44 43.43" fill="#003e8e"/>
        <path d="M96.18,42.67s-.27-2.36.44-2.47l4.23-.6-.93,3.32-3.73-.27Z" fill="#003e8e"/>
        <path d="M564.26,174.73H448.1a198.06,198.06,0,0,1-25.57-70.2c2.29-6.49,6.91-6.45,4.3-7.07a34.85,34.85,0,0,0-5.35-.58c-2.11-18.16-.68-29.71-.67-29.78C435,65,442.34,77.41,493.7,102.79c73.76,36.41,177.4,71.94,177.4,71.94Z" fill="#00549d"/>
        <polygon points="72.31 40.04 72.67 40.67 73.45 42.02 72.14 42.02 72.14 44.52 71.64 44.52 71.64 42.02 70.33 42.02 71.11 40.67 71.47 40.04 70.33 40.04 71.11 38.69 71.37 38.24 70.33 38.24 71.11 36.89 71.89 35.54 72.67 36.89 73.45 38.24 72.41 38.24 72.67 38.69 73.45 40.04 72.31 40.04 72.31 40.04" fill="#003e8e"/>
        <polygon points="80.74 40.23 81.1 40.85 81.88 42.2 80.57 42.2 80.57 44.7 80.07 44.7 80.07 42.2 78.76 42.2 79.54 40.85 79.9 40.23 78.76 40.23 79.54 38.88 79.8 38.43 78.76 38.43 79.54 37.08 80.32 35.73 81.1 37.08 81.88 38.43 80.84 38.43 81.1 38.88 81.88 40.23 80.74 40.23 80.74 40.23" fill="#003e8e"/>
        <polygon points="94.77 42.7 95.13 43.33 95.91 44.68 94.6 44.68 94.6 47.18 94.11 47.18 94.11 44.68 92.79 44.68 93.57 43.33 93.94 42.7 92.79 42.7 93.57 41.35 93.83 40.9 92.79 40.9 93.57 39.55 94.35 38.2 95.13 39.55 95.91 40.9 94.87 40.9 95.13 41.35 95.91 42.7 94.77 42.7 94.77 42.7" fill="#003e8e"/>
        <polygon points="127.94 46.4 128.3 47.02 129.08 48.37 127.77 48.37 127.77 50.87 127.27 50.87 127.27 48.37 125.96 48.37 126.74 47.02 127.1 46.4 125.96 46.4 126.74 45.05 127 44.6 125.96 44.6 126.74 43.25 127.52 41.9 128.3 43.25 129.08 44.6 128.04 44.6 128.3 45.05 129.08 46.4 127.94 46.4 127.94 46.4" fill="#003e8e"/>
        <path d="M7.28,7.7a1,1,0,1,1-.76-1.89,1,1,0,1,1,2.07,0A1,1,0,1,1,8,7.7V9.92H7.28Z" fill="#003e8e"/>
        <path d="M43.62,27.37a1,1,0,1,1-.76-1.89h0a1,1,0,1,1,2.07,0,1,1,0,0,1-.36,2l-.22-.07v2.22h-.73V27.37Z" fill="#003e8e"/>
        <path d="M122.15,43.54a1.43,1.43,0,1,1,1.31-1.9,1,1,0,0,1-.36,2l-.22-.07v2.22h-.73Z" fill="#003e8e"/>
        <polygon points="157.42 48.45 157.78 49.08 158.56 50.43 157.25 50.43 157.25 52.93 156.76 52.93 156.76 50.43 155.45 50.43 156.23 49.08 156.59 48.45 155.45 48.45 156.23 47.1 156.49 46.65 155.45 46.65 156.23 45.3 157 43.95 157.78 45.3 158.56 46.65 157.53 46.65 157.78 47.1 158.56 48.45 157.42 48.45 157.42 48.45" fill="#003e8e"/>
        <polygon points="189.01 52.59 189.38 53.22 190.16 54.57 188.85 54.57 188.85 57.07 188.35 57.07 188.35 54.57 187.04 54.57 187.82 53.22 188.18 52.59 187.04 52.59 187.82 51.24 188.08 50.79 187.04 50.79 187.82 49.44 188.6 48.09 189.38 49.44 190.16 50.79 189.12 50.79 189.38 51.24 190.16 52.59 189.01 52.59 189.01 52.59" fill="#003e8e"/>
        <polygon points="197.44 52.78 197.81 53.4 198.59 54.75 197.28 54.75 197.28 57.25 196.78 57.25 196.78 54.75 195.47 54.75 196.25 53.4 196.61 52.78 195.47 52.78 196.25 51.43 196.51 50.98 195.47 50.98 196.25 49.63 197.03 48.28 197.81 49.63 198.59 50.98 197.55 50.98 197.81 51.43 198.59 52.78 197.44 52.78 197.44 52.78" fill="#003e8e"/>
        <polygon points="168.81 48.06 169.17 48.68 169.95 50.03 168.64 50.03 168.64 52.53 168.14 52.53 168.14 50.03 166.83 50.03 167.61 48.68 167.97 48.06 166.83 48.06 167.61 46.71 167.87 46.26 166.83 46.26 167.61 44.91 168.39 43.56 169.17 44.91 169.95 46.26 168.91 46.26 169.17 46.71 169.95 48.06 168.81 48.06 168.81 48.06" fill="#003e8e"/>
        <polygon points="319.9 89.64 320.26 90.27 321.04 91.62 319.73 91.62 319.73 94.12 319.23 94.12 319.23 91.62 317.92 91.62 318.7 90.27 319.06 89.64 317.92 89.64 318.7 88.29 318.96 87.84 317.92 87.84 318.7 86.49 319.48 85.14 320.26 86.49 321.04 87.84 320 87.84 320.26 88.29 321.04 89.64 319.9 89.64 319.9 89.64" fill="#003e8e"/>
        <path d="M321.56,92.83s-.27-2.36.44-2.47l4.23-.6-.93,3.35-3.73-.27Z" fill="#003e8e"/>
        <polygon points="257.2 74.13 257.56 74.75 258.34 76.1 257.03 76.1 257.03 78.6 256.54 78.6 256.54 76.1 255.22 76.1 256 74.75 256.37 74.13 255.22 74.13 256 72.78 256.26 72.33 255.22 72.33 256 70.98 256.78 69.63 257.56 70.98 258.34 72.33 257.3 72.33 257.56 72.78 258.34 74.13 257.2 74.13 257.2 74.13" fill="#003e8e"/>
        <polygon points="260.07 73.78 260.44 74.4 261.21 75.75 259.9 75.75 259.9 78.25 259.41 78.25 259.41 75.75 258.1 75.75 258.88 74.4 259.24 73.78 258.1 73.78 258.88 72.43 259.14 71.98 258.1 71.98 258.88 70.63 259.65 69.28 260.44 70.63 261.21 71.98 260.18 71.98 260.44 72.43 261.21 73.78 260.07 73.78 260.07 73.78" fill="#003e8e"/>
        <polygon points="276.82 79.1 277.18 79.73 277.96 81.08 276.65 81.08 276.65 83.58 276.15 83.58 276.15 81.08 274.85 81.08 275.62 79.73 275.99 79.1 274.85 79.1 275.62 77.75 275.88 77.3 274.85 77.3 275.62 75.95 276.4 74.6 277.18 75.95 277.96 77.3 276.92 77.3 277.18 77.75 277.96 79.1 276.82 79.1 276.82 79.1" fill="#003e8e"/>
        <polygon points="158.88 49.18 159.24 49.81 160.02 51.16 158.71 51.16 158.71 53.66 158.21 53.66 158.21 51.16 156.9 51.16 157.68 49.81 158.04 49.18 156.9 49.18 157.68 47.84 157.94 47.38 156.9 47.38 157.68 46.03 158.46 44.68 159.24 46.03 160.02 47.38 158.98 47.38 159.24 47.84 160.02 49.18 158.88 49.18 158.88 49.18" fill="#003e8e"/>
        <polygon points="190.47 53.33 190.83 53.95 191.61 55.3 190.3 55.3 190.3 57.8 189.8 57.8 189.8 55.3 188.49 55.3 189.27 53.95 189.63 53.33 188.49 53.33 189.27 51.98 189.53 51.53 188.49 51.53 189.27 50.17 190.05 48.82 190.83 50.17 191.61 51.53 190.57 51.53 190.83 51.98 191.61 53.33 190.47 53.33 190.47 53.33" fill="#003e8e"/>
        <polygon points="198.9 53.51 199.26 54.14 200.04 55.49 198.73 55.49 198.73 57.99 198.23 57.99 198.23 55.49 196.92 55.49 197.7 54.14 198.06 53.51 196.92 53.51 197.7 52.16 197.96 51.71 196.92 51.71 197.7 50.36 198.48 49.01 199.26 50.36 200.04 51.71 199 51.71 199.26 52.16 200.04 53.51 198.9 53.51 198.9 53.51" fill="#003e8e"/>
        <polygon points="170.26 48.79 170.62 49.42 171.4 50.77 170.09 50.77 170.09 53.27 169.59 53.27 169.59 50.77 168.28 50.77 169.06 49.42 169.43 48.79 168.28 48.79 169.06 47.44 169.32 46.99 168.28 46.99 169.06 45.64 169.84 44.29 170.62 45.64 171.4 46.99 170.36 46.99 170.62 47.44 171.4 48.79 170.26 48.79 170.26 48.79" fill="#003e8e"/>
        <polygon points="321.35 90.38 321.71 91 322.49 92.35 321.18 92.35 321.18 94.85 320.69 94.85 320.69 92.35 319.38 92.35 320.15 91 320.52 90.38 319.38 90.38 320.15 89.03 320.41 88.57 319.38 88.57 320.15 87.23 320.93 85.87 321.71 87.23 322.49 88.57 321.45 88.57 321.71 89.03 322.49 90.38 321.35 90.38 321.35 90.38" fill="#003e8e"/>
        <path d="M323,93.57s-.27-2.36.44-2.47l4.23-.6-.93,3.35L323,93.58Z" fill="#003e8e"/>
        <polygon points="258.65 74.86 259.02 75.49 259.8 76.84 258.49 76.84 258.49 79.34 257.99 79.34 257.99 76.84 256.68 76.84 257.46 75.49 257.82 74.86 256.68 74.86 257.46 73.51 257.72 73.06 256.68 73.06 257.46 71.71 258.24 70.36 259.02 71.71 259.8 73.06 258.76 73.06 259.02 73.51 259.8 74.86 258.65 74.86 258.65 74.86" fill="#003e8e"/>
        <polygon points="261.53 74.51 261.89 75.14 262.67 76.49 261.36 76.49 261.36 78.99 260.86 78.99 260.86 76.49 259.55 76.49 260.33 75.14 260.69 74.51 259.55 74.51 260.33 73.16 260.59 72.71 259.55 72.71 260.33 71.36 261.11 70.01 261.89 71.36 262.67 72.71 261.63 72.71 261.89 73.16 262.67 74.51 261.53 74.51 261.53 74.51" fill="#003e8e"/>
        <polygon points="278.27 79.84 278.64 80.46 279.42 81.81 278.11 81.81 278.11 84.31 277.61 84.31 277.61 81.81 276.3 81.81 277.08 80.46 277.44 79.84 276.3 79.84 277.08 78.48 277.34 78.03 276.3 78.03 277.08 76.68 277.86 75.33 278.64 76.68 279.42 78.03 278.38 78.03 278.64 78.48 279.42 79.84 278.27 79.84 278.27 79.84" fill="#003e8e"/>
        <polygon points="163.93 49.56 164.29 50.19 165.07 51.54 163.76 51.54 163.76 54.04 163.27 54.04 163.27 51.54 161.96 51.54 162.74 50.19 163.1 49.56 161.96 49.56 162.74 48.21 163 47.76 161.96 47.76 162.74 46.41 163.51 45.06 164.29 46.41 165.07 47.76 164.03 47.76 164.29 48.21 165.07 49.56 163.93 49.56 163.93 49.56" fill="#003e8e"/>
        <polygon points="195.52 53.7 195.89 54.33 196.66 55.68 195.35 55.68 195.35 58.18 194.86 58.18 194.86 55.68 193.55 55.68 194.33 54.33 194.69 53.7 193.55 53.7 194.33 52.35 194.59 51.9 193.55 51.9 194.33 50.55 195.11 49.2 195.89 50.55 196.66 51.9 195.63 51.9 195.89 52.35 196.66 53.7 195.52 53.7 195.52 53.7" fill="#003e8e"/>
        <polygon points="203.95 53.89 204.31 54.51 205.09 55.86 203.78 55.86 203.78 58.36 203.29 58.36 203.29 55.86 201.98 55.86 202.75 54.51 203.12 53.89 201.98 53.89 202.75 52.54 203.02 52.09 201.98 52.09 202.75 50.74 203.53 49.39 204.31 50.74 205.09 52.09 204.06 52.09 204.31 52.54 205.09 53.89 203.95 53.89 203.95 53.89" fill="#003e8e"/>
        <polygon points="175.32 49.17 175.68 49.8 176.46 51.15 175.15 51.15 175.15 53.65 174.65 53.65 174.65 51.15 173.34 51.15 174.12 49.8 174.48 49.17 173.34 49.17 174.12 47.82 174.38 47.37 173.34 47.37 174.12 46.02 174.9 44.67 175.68 46.02 176.46 47.37 175.42 47.37 175.68 47.82 176.46 49.17 175.32 49.17 175.32 49.17" fill="#003e8e"/>
        <polygon points="326.41 90.75 326.77 91.38 327.55 92.73 326.24 92.73 326.24 95.23 325.74 95.23 325.74 92.73 324.43 92.73 325.21 91.38 325.57 90.75 324.43 90.75 325.21 89.4 325.47 88.95 324.43 88.95 325.21 87.6 325.99 86.25 326.77 87.6 327.55 88.95 326.51 88.95 326.77 89.4 327.55 90.75 326.41 90.75 326.41 90.75" fill="#003e8e"/>
        <path d="M328.07,93.92s-.27-2.36.44-2.47l4.23-.6-.94,3.32-3.73-.27Z" fill="#003e8e"/>
        <polygon points="263.71 75.24 264.07 75.86 264.85 77.22 263.54 77.22 263.54 79.72 263.04 79.72 263.04 77.22 261.73 77.22 262.51 75.86 262.88 75.24 261.73 75.24 262.51 73.89 262.77 73.44 261.73 73.44 262.51 72.09 263.29 70.74 264.07 72.09 264.85 73.44 263.81 73.44 264.07 73.89 264.85 75.24 263.71 75.24 263.71 75.24" fill="#003e8e"/>
        <polygon points="266.58 74.89 266.94 75.52 267.72 76.87 266.41 76.87 266.41 79.37 265.92 79.37 265.92 76.87 264.61 76.87 265.38 75.52 265.75 74.89 264.61 74.89 265.38 73.54 265.64 73.09 264.61 73.09 265.38 71.74 266.16 70.39 266.94 71.74 267.72 73.09 266.68 73.09 266.94 73.54 267.72 74.89 266.58 74.89 266.58 74.89" fill="#003e8e"/>
        <polygon points="283.33 80.21 283.69 80.84 284.47 82.19 283.16 82.19 283.16 84.69 282.66 84.69 282.66 82.19 281.35 82.19 282.13 80.84 282.5 80.21 281.35 80.21 282.13 78.86 282.39 78.41 281.35 78.41 282.13 77.06 282.91 75.71 283.69 77.06 284.47 78.41 283.43 78.41 283.69 78.86 284.47 80.21 283.33 80.21 283.33 80.21" fill="#003e8e"/>
        <polygon points="216.58 61.21 216.94 61.84 217.72 63.19 216.41 63.19 216.41 65.69 215.92 65.69 215.92 63.19 214.61 63.19 215.38 61.84 215.75 61.21 214.61 61.21 215.38 59.86 215.65 59.41 214.61 59.41 215.38 58.06 216.16 56.71 216.94 58.06 217.72 59.41 216.69 59.41 216.94 59.86 217.72 61.21 216.58 61.21 216.58 61.21" fill="#003e8e"/>
        <polygon points="219.46 60.86 219.82 61.49 220.6 62.84 219.28 62.84 219.28 65.34 218.79 65.34 218.79 62.84 217.48 62.84 218.26 61.49 218.62 60.86 217.48 60.86 218.26 59.51 218.52 59.06 217.48 59.06 218.26 57.71 219.04 56.36 219.82 57.71 220.6 59.06 219.56 59.06 219.82 59.51 220.6 60.86 219.46 60.86 219.46 60.86" fill="#003e8e"/>
        <polygon points="236.2 66.18 236.56 66.81 237.34 68.16 236.03 68.16 236.03 70.66 235.54 70.66 235.54 68.16 234.23 68.16 235 66.81 235.37 66.18 234.23 66.18 235 64.84 235.26 64.38 234.23 64.38 235 63.03 235.78 61.68 236.56 63.03 237.34 64.38 236.3 64.38 236.56 64.84 237.34 66.18 236.2 66.18 236.2 66.18" fill="#003e8e"/>
        <polygon points="218.04 61.94 218.4 62.57 219.18 63.92 217.87 63.92 217.87 66.42 217.37 66.42 217.37 63.92 216.06 63.92 216.84 62.57 217.2 61.94 216.06 61.94 216.84 60.6 217.1 60.15 216.06 60.15 216.84 58.8 217.62 57.44 218.4 58.8 219.18 60.15 218.14 60.15 218.4 60.6 219.18 61.94 218.04 61.94 218.04 61.94" fill="#003e8e"/>
        <polygon points="220.91 61.6 221.27 62.22 222.05 63.57 220.74 63.57 220.74 66.07 220.24 66.07 220.24 63.57 218.93 63.57 219.71 62.22 220.07 61.6 218.93 61.6 219.71 60.25 219.97 59.8 218.93 59.8 219.71 58.44 220.49 57.1 221.27 58.44 222.05 59.8 221.01 59.8 221.27 60.25 222.05 61.6 220.91 61.6 220.91 61.6" fill="#003e8e"/>
        <polygon points="237.66 66.92 238.02 67.54 238.8 68.89 237.49 68.89 237.49 71.39 236.99 71.39 236.99 68.89 235.68 68.89 236.46 67.54 236.82 66.92 235.68 66.92 236.46 65.57 236.72 65.12 235.68 65.12 236.46 63.77 237.24 62.42 238.02 63.77 238.8 65.12 237.76 65.12 238.02 65.57 238.8 66.92 237.66 66.92 237.66 66.92" fill="#003e8e"/>
        <polygon points="223.09 62.32 223.45 62.95 224.23 64.3 222.92 64.3 222.92 66.8 222.43 66.8 222.43 64.3 221.12 64.3 221.89 62.95 222.26 62.32 221.12 62.32 221.89 60.97 222.16 60.52 221.12 60.52 221.89 59.17 222.67 57.82 223.45 59.17 224.23 60.52 223.19 60.52 223.45 60.97 224.23 62.32 223.09 62.32 223.09 62.32" fill="#003e8e"/>
        <polygon points="225.96 61.98 226.32 62.6 227.1 63.95 225.79 63.95 225.79 66.45 225.3 66.45 225.3 63.95 223.99 63.95 224.77 62.6 225.13 61.98 223.99 61.98 224.77 60.62 225.03 60.17 223.99 60.17 224.77 58.82 225.54 57.47 226.32 58.82 227.1 60.17 226.06 60.17 226.32 60.62 227.1 61.98 225.96 61.98 225.96 61.98" fill="#003e8e"/>
        <polygon points="242.71 67.3 243.07 67.92 243.85 69.27 242.54 69.27 242.54 71.77 242.04 71.77 242.04 69.27 240.74 69.27 241.51 67.92 241.88 67.3 240.74 67.3 241.51 65.95 241.77 65.5 240.74 65.5 241.51 64.15 242.29 62.8 243.07 64.15 243.85 65.5 242.81 65.5 243.07 65.95 243.85 67.3 242.71 67.3 242.71 67.3" fill="#003e8e"/>
        <polygon points="360.65 88.12 361.01 88.74 361.79 90.1 360.48 90.1 360.48 92.6 359.99 92.6 359.99 90.1 358.68 90.1 359.45 88.74 359.82 88.12 358.68 88.12 359.45 86.77 359.71 86.32 358.68 86.32 359.45 84.97 360.23 83.62 361.01 84.97 361.79 86.32 360.75 86.32 361.01 86.77 361.79 88.12 360.65 88.12 360.65 88.12" fill="#003e8e"/>
        <polygon points="363.52 87.77 363.88 88.4 364.67 89.75 363.35 89.75 363.35 92.24 362.86 92.24 362.86 89.75 361.55 89.75 362.33 88.4 362.69 87.77 361.55 87.77 362.33 86.42 362.59 85.97 361.55 85.97 362.33 84.62 363.11 83.27 363.88 84.62 364.67 85.97 363.63 85.97 363.88 86.42 364.67 87.77 363.52 87.77 363.52 87.77" fill="#003e8e"/>
        <polygon points="377.81 85.05 378.17 85.67 378.95 87.02 377.64 87.02 377.64 89.52 377.14 89.52 377.14 87.02 375.83 87.02 376.61 85.67 376.97 85.05 375.83 85.05 376.61 83.7 376.87 83.25 375.83 83.25 376.61 81.9 377.39 80.55 378.17 81.9 378.95 83.25 377.91 83.25 378.17 83.7 378.95 85.05 377.81 85.05 377.81 85.05" fill="#003e8e"/>
        <polygon points="362.11 88.85 362.47 89.48 363.25 90.83 361.94 90.83 361.94 93.33 361.44 93.33 361.44 90.83 360.13 90.83 360.91 89.48 361.27 88.85 360.13 88.85 360.91 87.5 361.17 87.05 360.13 87.05 360.91 85.7 361.69 84.35 362.47 85.7 363.25 87.05 362.21 87.05 362.47 87.5 363.25 88.85 362.11 88.85 362.11 88.85" fill="#003e8e"/>
        <polygon points="364.98 88.5 365.34 89.13 366.12 90.48 364.81 90.48 364.81 92.98 364.31 92.98 364.31 90.48 363 90.48 363.78 89.13 364.14 88.5 363 88.5 363.78 87.15 364.04 86.7 363 86.7 363.78 85.35 364.56 84 365.34 85.35 366.12 86.7 365.08 86.7 365.34 87.15 366.12 88.5 364.98 88.5 364.98 88.5" fill="#003e8e"/>
        <polygon points="379.26 85.78 379.62 86.41 380.4 87.76 379.09 87.76 379.09 90.26 378.59 90.26 378.59 87.76 377.28 87.76 378.06 86.41 378.42 85.78 377.28 85.78 378.06 84.43 378.32 83.98 377.28 83.98 378.06 82.63 378.84 81.28 379.62 82.63 380.4 83.98 379.36 83.98 379.62 84.43 380.4 85.78 379.26 85.78 379.26 85.78" fill="#003e8e"/>
        <polygon points="367.16 89.23 367.52 89.86 368.3 91.21 366.99 91.21 366.99 93.71 366.49 93.71 366.49 91.21 365.18 91.21 365.96 89.86 366.32 89.23 365.18 89.23 365.96 87.88 366.22 87.43 365.18 87.43 365.96 86.08 366.74 84.73 367.52 86.08 368.3 87.43 367.26 87.43 367.52 87.88 368.3 89.23 367.16 89.23 367.16 89.23" fill="#003e8e"/>
        <polygon points="370.03 88.88 370.39 89.51 371.17 90.86 369.86 90.86 369.86 93.36 369.37 93.36 369.37 90.86 368.06 90.86 368.83 89.51 369.2 88.88 368.06 88.88 368.83 87.53 369.1 87.08 368.06 87.08 368.83 85.73 369.61 84.38 370.39 85.73 371.17 87.08 370.13 87.08 370.39 87.53 371.17 88.88 370.03 88.88 370.03 88.88" fill="#003e8e"/>
        <polygon points="384.31 86.16 384.68 86.78 385.46 88.13 384.14 88.13 384.14 90.63 383.65 90.63 383.65 88.13 382.34 88.13 383.12 86.78 383.48 86.16 382.34 86.16 383.12 84.81 383.38 84.36 382.34 84.36 383.12 83.01 383.9 81.66 384.68 83.01 385.46 84.36 384.42 84.36 384.68 84.81 385.46 86.16 384.31 86.16 384.31 86.16" fill="#003e8e"/>
        <path d="M150.85,47.42a1.43,1.43,0,1,1,1.31-1.9,1,1,0,1,1-.36,2l-.22-.07v2.22h-.73Z" fill="#003e8e"/>
        <path d="M206.62,56.27a2.26,2.26,0,1,0,.73,0v2.22h-.73Z" fill="#003e8e"/>
        <path d="M246.09,65.2a2.26,2.26,0,1,0,.73,0v2.22h-.73Z" fill="#003e8e"/>
        <path d="M208.64,57.52a2.26,2.26,0,1,0,.73,0v2.22h-.73Z" fill="#003e8e"/>
        <path d="M248.11,66.45a2.26,2.26,0,1,0,.73,0v2.22h-.73Z" fill="#003e8e"/>
        <path d="M286.58,81a2.26,2.26,0,1,0,.73,0V83.2h-.73Z" fill="#003e8e"/>
        <path d="M315.88,89.77a2.26,2.26,0,1,0,.73,0V92h-.73Z" fill="#003e8e"/>
        <path d="M386.38,81.2a2.26,2.26,0,1,0,.73,0v2.22h-.73Z" fill="#003e8e"/>
        <path d="M358,90.1a2.26,2.26,0,1,0,.73,0v2.22H358Z" fill="#003e8e"/>
        <path d="M489.31,99.69a2.27,2.27,0,1,0,.73,0v2.23h-.73Z" fill="#00549d"/>
        <polygon points="539.59 122.55 539.96 123.18 540.74 124.53 539.42 124.53 539.42 127.03 538.93 127.03 538.93 124.53 537.62 124.53 538.4 123.18 538.76 122.55 537.62 122.55 538.4 121.2 538.66 120.75 537.62 120.75 538.4 119.4 539.18 118.05 539.96 119.4 540.74 120.75 539.7 120.75 539.96 121.2 540.74 122.55 539.59 122.55 539.59 122.55" fill="#00549d"/>
        <path d="M546.44,126.42a2.26,2.26,0,1,0,.73,0v2.22h-.73Z" fill="#00549d"/>
        <polygon points="486.11 98.93 486.47 99.55 487.25 100.91 485.94 100.91 485.94 103.41 485.44 103.41 485.44 100.91 484.13 100.91 484.91 99.55 485.27 98.93 484.13 98.93 484.91 97.58 485.17 97.13 484.13 97.13 484.91 95.78 485.69 94.43 486.47 95.78 487.25 97.13 486.21 97.13 486.47 97.58 487.25 98.93 486.11 98.93 486.11 98.93" fill="#00549d"/>
        <path d="M493,102.8a2.26,2.26,0,1,0,.73,0V105H493Z" fill="#00549d"/>
        <polygon points="621.48 153.98 621.85 154.6 622.63 155.95 621.31 155.95 621.31 158.45 620.82 158.45 620.82 155.95 619.51 155.95 620.29 154.6 620.65 153.98 619.51 153.98 620.29 152.63 620.55 152.18 619.51 152.18 620.29 150.83 621.07 149.48 621.85 150.83 622.63 152.18 621.59 152.18 621.85 152.63 622.63 153.98 621.48 153.98 621.48 153.98" fill="#00549d"/>
        <path d="M607.44,151.61a2.26,2.26,0,1,0,.73,0v2.22h-.73Z" fill="#00549d"/>
  </g>
</svg>
