<svg xmlns="http://www.w3.org/2000/svg" viewBox="0 0 669.6 289.53">
  <title>mtn-3</title>
  <g id="Layer_2" data-name="Layer 2">
    <g id="Mtns">
      <g id="Mtn3">
        <path d="M669.6,0V289.53c-181-23.61-714.71-98.29-485.35-130C108.83,145.08,0,99.59,0,99.59s68.51-9.37,133.5,22.84C279.5,194.77,543.44,73,669.6,0Z" fill="#3f75a6"/>
        <polygon points="360.25 125.39 360.61 126.02 361.39 127.37 360.08 127.37 360.08 129.87 359.59 129.87 359.59 127.37 358.27 127.37 359.05 126.02 359.41 125.39 358.27 125.39 359.05 124.04 359.31 123.59 358.27 123.59 359.05 122.24 359.83 120.89 360.61 122.24 361.39 123.59 360.35 123.59 360.61 124.04 361.39 125.39 360.25 125.39 360.25 125.39" fill="#3f75a6"/>
        <path d="M374.47,124.15a2.26,2.26,0,1,0,.73,0v2.24h-.73Z" fill="#3f75a6"/>
        <polygon points="529 69.1 529.36 69.72 530.14 71.07 528.83 71.07 528.83 73.57 528.33 73.57 528.33 71.07 527.02 71.07 527.8 69.72 528.16 69.1 527.02 69.1 527.8 67.75 528.06 67.3 527.02 67.3 527.8 65.95 528.58 64.6 529.36 65.95 530.14 67.3 529.1 67.3 529.36 67.75 530.14 69.1 529 69.1 529 69.1" fill="#3f75a6"/>
        <path d="M521,73.28a2.26,2.26,0,1,0,.73,0V75.5H521Z" fill="#3f75a6"/>
        <path d="M546.6,62.86a2.26,2.26,0,1,0,.73,0v2.22h-.73Z" fill="#3f75a6"/>
        <path d="M480.09,90.74a2.26,2.26,0,1,0,.73,0V93h-.73Z" fill="#3f75a6"/>
        <polygon points="533.54 65.12 533.9 65.74 534.68 67.09 533.37 67.09 533.37 69.59 532.88 69.59 532.88 67.09 531.57 67.09 532.35 65.74 532.71 65.12 531.57 65.12 532.35 63.77 532.6 63.32 531.57 63.32 532.35 61.96 533.12 60.61 533.9 61.96 534.68 63.32 533.64 63.32 533.9 63.77 534.68 65.12 533.54 65.12 533.54 65.12" fill="#3f75a6"/>
        <path d="M525.6,71.27a2.27,2.27,0,1,0,.73,0v2.22h-.73Z" fill="#3f75a6"/>
        <path d="M551.17,60.85a2.26,2.26,0,1,0,.73,0v2.22h-.73Z" fill="#3f75a6"/>
        <path d="M484.6,88.74a2.26,2.26,0,1,0,.73,0V91h-.73Z" fill="#3f75a6"/>
        <polygon points="614.08 28.83 614.44 29.46 615.22 30.81 613.91 30.81 613.91 33.31 613.41 33.31 613.41 30.81 612.1 30.81 612.88 29.46 613.24 28.83 612.1 28.83 612.88 27.48 613.14 27.03 612.1 27.03 612.88 25.68 613.66 24.33 614.44 25.68 615.22 27.03 614.18 27.03 614.44 27.48 615.22 28.83 614.08 28.83 614.08 28.83" fill="#3f75a6"/>
        <path d="M606.1,35a2.27,2.27,0,1,0,.73,0v2.22h-.73Z" fill="#3f75a6"/>
        <path d="M631.7,19.31a2.26,2.26,0,1,0,.73,0v2.22h-.73Z" fill="#3f75a6"/>
        <path d="M565.17,52.46a2.27,2.27,0,1,0,.73,0v2.21h-.73V52.45Z" fill="#3f75a6"/>
      </g>
    </g>
  </g>
</svg>
