<svg id="Layer_1" data-name="Layer 1" xmlns="http://www.w3.org/2000/svg" xmlns:xlink="http://www.w3.org/1999/xlink" viewBox="0 0 786.95 435.81">
  <defs>
    <clipPath id="clip-path" transform="translate(0 -13.72)">
      <polyline points="786.95 8.44 786.95 8.44 786.95 387.51 0 387.51" fill="none" clip-rule="evenodd"/>
    </clipPath>
  </defs>
  <title>mtns</title>
  <g>
    <path d="M786.95,47.1V449.53H0V151.22c23.95-7,59.31-19.38,109.33-41C223.55,60.71,298.27,13.72,298.27,13.72S570.53,84,656.61,84,786.95,47.1,786.95,47.1Z" transform="translate(0 -13.72)" fill="#598fbf" fill-rule="evenodd"/>
    <path d="M786.95,47.1V449.53H611.6c57.08-153.3,15-207.72-118.64-262.13C334.17,122.76,298.27,13.72,298.27,13.72S570.53,84,656.61,84,786.95,47.1,786.95,47.1Z" transform="translate(0 -13.72)" fill="#6a9ac5" fill-rule="evenodd"/>
    <path d="M786.95,121.34V410.86c-181-23.61-714.71-98.29-485.35-130-75.42-14.45-184.25-59.94-184.25-59.94s68.51-9.37,133.5,22.84c146,72.34,409.94-49.41,536.1-122.43Z" transform="translate(0 -13.72)" fill="#3f75a6" fill-rule="evenodd"/>
    <path d="M786.95,390.3v59.23H0V181.37c9,.52,18.82,1.34,29.36,2.58,72.61,8.49,241,81.19,241,81.19s40.4,2.34,120.62,11.71,144-9.37,144-9.37S662.53,347.13,786.95,390.3Z" transform="translate(0 -13.72)" fill="#1a65a7" fill-rule="evenodd"/>
    <path d="M786.95,390.3v59.23H709.8L688.41,440c-41.19-18.46-71.48-41.59-93.73-64.85a42.43,42.43,0,0,1,3.52-5.21l-6,2.64c-33.06-35.51-47.57-71-53.51-90.24a42.89,42.89,0,0,1,3.42-5l-4.34,1.92A108.93,108.93,0,0,1,535,267.48S662.53,347.13,786.95,390.3Z" transform="translate(0 -13.72)" fill="#4682b8" fill-rule="evenodd"/>
    <path d="M564.26,449.53H0V279.62C14.67,287.18,29.3,295,41.06,302c38.65,22.84,149.31,13.47,243.58,53.28C326.5,372.94,351.7,374.15,394,353c43-21.52,25.91-11.86,99.69,24.59S671.1,449.53,671.1,449.53Z" transform="translate(0 -13.72)" fill="#003e8e" fill-rule="evenodd"/>
    <path d="M564.26,449.53H448.1a198.06,198.06,0,0,1-25.57-70.2c2.29-6.49,6.91-6.45,4.3-7.07a34.85,34.85,0,0,0-5.35-.58c-2.11-18.16-.68-29.71-.67-29.78,14.22-2.07,21.53,10.31,72.89,35.69C567.46,414,671.1,449.53,671.1,449.53Z" transform="translate(0 -13.72)" fill="#00549d" fill-rule="evenodd"/>
    <polygon points="13.59 272.22 13.95 272.85 14.73 274.19 13.42 274.19 13.42 276.69 12.92 276.69 12.92 274.19 11.61 274.19 12.39 272.85 12.75 272.22 11.61 272.22 12.39 270.87 12.65 270.42 11.61 270.42 12.39 269.07 13.17 267.72 13.95 269.07 14.73 270.42 13.69 270.42 13.95 270.87 14.73 272.22 13.59 272.22 13.59 272.22" fill="#003e8e" fill-rule="evenodd"/>
    <polygon points="17.3 272.41 17.66 273.03 18.44 274.38 17.13 274.38 17.13 276.88 16.63 276.88 16.63 274.38 15.32 274.38 16.1 273.03 16.46 272.41 15.32 272.41 16.1 271.06 16.36 270.61 15.32 270.61 16.1 269.25 16.88 267.9 17.66 269.25 18.44 270.61 17.4 270.61 17.66 271.06 18.44 272.41 17.3 272.41 17.3 272.41" fill="#003e8e" fill-rule="evenodd"/>
    <polygon points="27.62 280.39 27.98 281.02 28.76 282.37 27.45 282.37 27.45 284.87 26.95 284.87 26.95 282.37 25.64 282.37 26.42 281.02 26.79 280.39 25.64 280.39 26.42 279.04 26.68 278.59 25.64 278.59 26.42 277.24 27.2 275.89 27.98 277.24 28.76 278.59 27.72 278.59 27.98 279.04 28.76 280.39 27.62 280.39 27.62 280.39" fill="#003e8e" fill-rule="evenodd"/>
    <polygon points="69.82 298.16 70.18 298.79 70.96 300.14 69.65 300.14 69.65 302.64 69.15 302.64 69.15 300.14 67.84 300.14 68.62 298.79 68.98 298.16 67.84 298.16 68.62 296.81 68.88 296.36 67.84 296.36 68.62 295.01 69.4 293.66 70.18 295.01 70.96 296.36 69.92 296.36 70.18 296.81 70.96 298.16 69.82 298.16 69.82 298.16" fill="#003e8e" fill-rule="evenodd"/>
    <polygon points="78.25 298.35 78.61 298.97 79.39 300.32 78.08 300.32 78.08 302.82 77.58 302.82 77.58 300.32 76.27 300.32 77.05 298.97 77.41 298.35 76.27 298.35 77.05 296.99 77.31 296.54 76.27 296.54 77.05 295.19 77.83 293.84 78.61 295.19 79.39 296.54 78.35 296.54 78.61 296.99 79.39 298.35 78.25 298.35 78.25 298.35" fill="#003e8e" fill-rule="evenodd"/>
    <polygon points="49.61 293.63 49.97 294.25 50.75 295.6 49.44 295.6 49.44 298.1 48.94 298.1 48.94 295.6 47.63 295.6 48.41 294.25 48.77 293.63 47.63 293.63 48.41 292.28 48.67 291.83 47.63 291.83 48.41 290.48 49.19 289.13 49.97 290.48 50.75 291.83 49.71 291.83 49.97 292.28 50.75 293.63 49.61 293.63 49.61 293.63" fill="#003e8e" fill-rule="evenodd"/>
    <polygon points="92.28 300.82 92.64 301.44 93.42 302.79 92.11 302.79 92.11 305.29 91.61 305.29 91.61 302.79 90.3 302.79 91.08 301.44 91.44 300.82 90.3 300.82 91.08 299.47 91.34 299.02 90.3 299.02 91.08 297.67 91.86 296.32 92.64 297.67 93.42 299.02 92.38 299.02 92.64 299.47 93.42 300.82 92.28 300.82 92.28 300.82" fill="#003e8e" fill-rule="evenodd"/>
    <polygon points="5.75 265.59 6.11 266.21 6.89 267.56 5.58 267.56 5.58 270.06 5.08 270.06 5.08 267.56 3.77 267.56 4.55 266.21 4.92 265.59 3.77 265.59 4.55 264.24 4.82 263.79 3.77 263.79 4.55 262.44 5.33 261.08 6.11 262.44 6.89 263.79 5.85 263.79 6.11 264.24 6.89 265.59 5.75 265.59 5.75 265.59" fill="#003e8e" fill-rule="evenodd"/>
    <polygon points="16.08 273.57 16.44 274.2 17.22 275.55 15.91 275.55 15.91 278.05 15.41 278.05 15.41 275.55 14.1 275.55 14.88 274.2 15.24 273.57 14.1 273.57 14.88 272.22 15.14 271.77 14.1 271.77 14.88 270.42 15.66 269.07 16.44 270.42 17.22 271.77 16.18 271.77 16.44 272.22 17.22 273.57 16.08 273.57 16.08 273.57" fill="#003e8e" fill-rule="evenodd"/>
    <polygon points="19.78 273.76 20.15 274.38 20.93 275.74 19.61 275.74 19.61 278.24 19.12 278.24 19.12 275.74 17.81 275.74 18.59 274.38 18.95 273.76 17.81 273.76 18.59 272.41 18.85 271.96 17.81 271.96 18.59 270.61 19.37 269.26 20.15 270.61 20.93 271.96 19.89 271.96 20.15 272.41 20.93 273.76 19.78 273.76 19.78 273.76" fill="#003e8e" fill-rule="evenodd"/>
    <polygon points="30.11 281.75 30.47 282.37 31.25 283.72 29.94 283.72 29.94 286.22 29.44 286.22 29.44 283.72 28.13 283.72 28.91 282.37 29.27 281.75 28.13 281.75 28.91 280.4 29.17 279.95 28.13 279.95 28.91 278.6 29.69 277.25 30.47 278.6 31.25 279.95 30.21 279.95 30.47 280.4 31.25 281.75 30.11 281.75 30.11 281.75" fill="#003e8e" fill-rule="evenodd"/>
    <polygon points="125.44 304.51 125.8 305.14 126.58 306.49 125.27 306.49 125.27 308.99 124.78 308.99 124.78 306.49 123.47 306.49 124.24 305.14 124.61 304.51 123.47 304.51 124.24 303.17 124.5 302.71 123.47 302.71 124.24 301.36 125.02 300.01 125.8 301.36 126.58 302.71 125.54 302.71 125.8 303.17 126.58 304.51 125.44 304.51 125.44 304.51" fill="#003e8e" fill-rule="evenodd"/>
    <path d="M96.18,317.47s-.27-2.36.44-2.47l4.23-.6-.93,3.35-3.73-.27Z" transform="translate(0 -13.72)" fill="#003e8e" fill-rule="evenodd"/>
    <polygon points="72.31 301.12 72.67 301.75 73.45 303.1 72.14 303.1 72.14 305.6 71.64 305.6 71.64 303.1 70.33 303.1 71.11 301.75 71.47 301.12 70.33 301.12 71.11 299.77 71.37 299.32 70.33 299.32 71.11 297.97 71.89 296.62 72.67 297.97 73.45 299.32 72.41 299.32 72.67 299.77 73.45 301.12 72.31 301.12 72.31 301.12" fill="#003e8e" fill-rule="evenodd"/>
    <polygon points="80.74 301.31 81.1 301.93 81.88 303.28 80.57 303.28 80.57 305.78 80.07 305.78 80.07 303.28 78.76 303.28 79.54 301.93 79.9 301.31 78.76 301.31 79.54 299.96 79.8 299.51 78.76 299.51 79.54 298.16 80.32 296.81 81.1 298.16 81.88 299.51 80.84 299.51 81.1 299.96 81.88 301.31 80.74 301.31 80.74 301.31" fill="#003e8e" fill-rule="evenodd"/>
    <polygon points="94.77 303.78 95.13 304.41 95.91 305.76 94.6 305.76 94.6 308.26 94.11 308.26 94.11 305.76 92.79 305.76 93.57 304.41 93.94 303.78 92.79 303.78 93.57 302.43 93.83 301.98 92.79 301.98 93.57 300.63 94.35 299.28 95.13 300.63 95.91 301.98 94.87 301.98 95.13 302.43 95.91 303.78 94.77 303.78 94.77 303.78" fill="#003e8e" fill-rule="evenodd"/>
    <polygon points="127.94 307.48 128.3 308.1 129.08 309.45 127.77 309.45 127.77 311.95 127.27 311.95 127.27 309.45 125.96 309.45 126.74 308.1 127.1 307.48 125.96 307.48 126.74 306.13 127 305.68 125.96 305.68 126.74 304.33 127.52 302.98 128.3 304.33 129.08 305.68 128.04 305.68 128.3 306.13 129.08 307.48 127.94 307.48 127.94 307.48" fill="#003e8e" fill-rule="evenodd"/>
    <path d="M7.28,282.5a1,1,0,1,1-.76-1.89,1,1,0,0,1,2.07,0A1,1,0,1,1,8,282.5v2.22H7.28V282.5Z" transform="translate(0 -13.72)" fill="#003e8e" fill-rule="evenodd"/>
    <path d="M43.62,302.17a1,1,0,1,1-.76-1.89,1,1,0,0,1,2.07,0,1,1,0,1,1-.58,1.9v2.22h-.73v-2.22Z" transform="translate(0 -13.72)" fill="#003e8e" fill-rule="evenodd"/>
    <path d="M122.15,318.34a1.43,1.43,0,1,1,1.31-1.9,1,1,0,1,1-.58,1.9v2.22h-.73v-2.22Z" transform="translate(0 -13.72)" fill="#003e8e" fill-rule="evenodd"/>
    <polygon points="157.42 309.53 157.78 310.16 158.56 311.51 157.25 311.51 157.25 314.01 156.76 314.01 156.76 311.51 155.45 311.51 156.23 310.16 156.59 309.53 155.45 309.53 156.23 308.18 156.49 307.73 155.45 307.73 156.23 306.38 157 305.03 157.78 306.38 158.56 307.73 157.53 307.73 157.78 308.18 158.56 309.53 157.42 309.53 157.42 309.53" fill="#003e8e" fill-rule="evenodd"/>
    <polygon points="189.01 313.67 189.38 314.3 190.16 315.65 188.85 315.65 188.85 318.15 188.35 318.15 188.35 315.65 187.04 315.65 187.82 314.3 188.18 313.67 187.04 313.67 187.82 312.32 188.08 311.87 187.04 311.87 187.82 310.52 188.6 309.17 189.38 310.52 190.16 311.87 189.12 311.87 189.38 312.32 190.16 313.67 189.01 313.67 189.01 313.67" fill="#003e8e" fill-rule="evenodd"/>
    <polygon points="197.44 313.86 197.81 314.48 198.59 315.83 197.28 315.83 197.28 318.33 196.78 318.33 196.78 315.83 195.47 315.83 196.25 314.48 196.61 313.86 195.47 313.86 196.25 312.51 196.51 312.06 195.47 312.06 196.25 310.71 197.03 309.36 197.81 310.71 198.59 312.06 197.55 312.06 197.81 312.51 198.59 313.86 197.44 313.86 197.44 313.86" fill="#003e8e" fill-rule="evenodd"/>
    <polygon points="168.81 309.14 169.17 309.76 169.95 311.11 168.64 311.11 168.64 313.61 168.14 313.61 168.14 311.11 166.83 311.11 167.61 309.76 167.97 309.14 166.83 309.14 167.61 307.79 167.87 307.34 166.83 307.34 167.61 305.99 168.39 304.64 169.17 305.99 169.95 307.34 168.91 307.34 169.17 307.79 169.95 309.14 168.81 309.14 168.81 309.14" fill="#003e8e" fill-rule="evenodd"/>
    <polygon points="319.9 350.72 320.26 351.35 321.04 352.7 319.73 352.7 319.73 355.2 319.23 355.2 319.23 352.7 317.92 352.7 318.7 351.35 319.06 350.72 317.92 350.72 318.7 349.37 318.96 348.92 317.92 348.92 318.7 347.57 319.48 346.22 320.26 347.57 321.04 348.92 320 348.92 320.26 349.37 321.04 350.72 319.9 350.72 319.9 350.72" fill="#003e8e" fill-rule="evenodd"/>
    <path d="M321.56,367.63s-.27-2.36.44-2.47l4.23-.6-.93,3.35-3.73-.27Z" transform="translate(0 -13.72)" fill="#003e8e" fill-rule="evenodd"/>
    <polygon points="257.2 335.21 257.56 335.83 258.34 337.18 257.03 337.18 257.03 339.68 256.54 339.68 256.54 337.18 255.22 337.18 256 335.83 256.37 335.21 255.22 335.21 256 333.86 256.26 333.41 255.22 333.41 256 332.06 256.78 330.71 257.56 332.06 258.34 333.41 257.3 333.41 257.56 333.86 258.34 335.21 257.2 335.21 257.2 335.21" fill="#003e8e" fill-rule="evenodd"/>
    <polygon points="260.07 334.86 260.44 335.48 261.21 336.83 259.9 336.83 259.9 339.33 259.41 339.33 259.41 336.83 258.1 336.83 258.88 335.48 259.24 334.86 258.1 334.86 258.88 333.51 259.14 333.06 258.1 333.06 258.88 331.71 259.65 330.36 260.44 331.71 261.21 333.06 260.18 333.06 260.44 333.51 261.21 334.86 260.07 334.86 260.07 334.86" fill="#003e8e" fill-rule="evenodd"/>
    <polygon points="276.82 340.18 277.18 340.81 277.96 342.16 276.65 342.16 276.65 344.66 276.15 344.66 276.15 342.16 274.85 342.16 275.62 340.81 275.99 340.18 274.85 340.18 275.62 338.83 275.88 338.38 274.85 338.38 275.62 337.03 276.4 335.68 277.18 337.03 277.96 338.38 276.92 338.38 277.18 338.83 277.96 340.18 276.82 340.18 276.82 340.18" fill="#003e8e" fill-rule="evenodd"/>
    <polygon points="158.88 310.26 159.24 310.89 160.02 312.24 158.71 312.24 158.71 314.74 158.21 314.74 158.21 312.24 156.9 312.24 157.68 310.89 158.04 310.26 156.9 310.26 157.68 308.92 157.94 308.46 156.9 308.46 157.68 307.11 158.46 305.76 159.24 307.11 160.02 308.46 158.98 308.46 159.24 308.92 160.02 310.26 158.88 310.26 158.88 310.26" fill="#003e8e" fill-rule="evenodd"/>
    <polygon points="190.47 314.41 190.83 315.03 191.61 316.38 190.3 316.38 190.3 318.88 189.8 318.88 189.8 316.38 188.49 316.38 189.27 315.03 189.63 314.41 188.49 314.41 189.27 313.06 189.53 312.61 188.49 312.61 189.27 311.25 190.05 309.9 190.83 311.25 191.61 312.61 190.57 312.61 190.83 313.06 191.61 314.41 190.47 314.41 190.47 314.41" fill="#003e8e" fill-rule="evenodd"/>
    <polygon points="198.9 314.59 199.26 315.22 200.04 316.57 198.73 316.57 198.73 319.07 198.23 319.07 198.23 316.57 196.92 316.57 197.7 315.22 198.06 314.59 196.92 314.59 197.7 313.24 197.96 312.79 196.92 312.79 197.7 311.44 198.48 310.09 199.26 311.44 200.04 312.79 199 312.79 199.26 313.24 200.04 314.59 198.9 314.59 198.9 314.59" fill="#003e8e" fill-rule="evenodd"/>
    <polygon points="170.26 309.87 170.62 310.5 171.4 311.85 170.09 311.85 170.09 314.35 169.59 314.35 169.59 311.85 168.28 311.85 169.06 310.5 169.43 309.87 168.28 309.87 169.06 308.52 169.32 308.07 168.28 308.07 169.06 306.72 169.84 305.37 170.62 306.72 171.4 308.07 170.36 308.07 170.62 308.52 171.4 309.87 170.26 309.87 170.26 309.87" fill="#003e8e" fill-rule="evenodd"/>
    <polygon points="321.35 351.46 321.71 352.08 322.49 353.43 321.18 353.43 321.18 355.93 320.69 355.93 320.69 353.43 319.38 353.43 320.15 352.08 320.52 351.46 319.38 351.46 320.15 350.11 320.41 349.65 319.38 349.65 320.15 348.31 320.93 346.95 321.71 348.31 322.49 349.65 321.45 349.65 321.71 350.11 322.49 351.46 321.35 351.46 321.35 351.46" fill="#003e8e" fill-rule="evenodd"/>
    <path d="M323,368.37s-.27-2.36.44-2.47l4.23-.6-.93,3.35-3.73-.27Z" transform="translate(0 -13.72)" fill="#003e8e" fill-rule="evenodd"/>
    <polygon points="258.65 335.94 259.02 336.57 259.8 337.92 258.49 337.92 258.49 340.42 257.99 340.42 257.99 337.92 256.68 337.92 257.46 336.57 257.82 335.94 256.68 335.94 257.46 334.59 257.72 334.14 256.68 334.14 257.46 332.79 258.24 331.44 259.02 332.79 259.8 334.14 258.76 334.14 259.02 334.59 259.8 335.94 258.65 335.94 258.65 335.94" fill="#003e8e" fill-rule="evenodd"/>
    <polygon points="261.53 335.59 261.89 336.22 262.67 337.57 261.36 337.57 261.36 340.07 260.86 340.07 260.86 337.57 259.55 337.57 260.33 336.22 260.69 335.59 259.55 335.59 260.33 334.24 260.59 333.79 259.55 333.79 260.33 332.44 261.11 331.09 261.89 332.44 262.67 333.79 261.63 333.79 261.89 334.24 262.67 335.59 261.53 335.59 261.53 335.59" fill="#003e8e" fill-rule="evenodd"/>
    <polygon points="278.27 340.92 278.64 341.54 279.42 342.89 278.11 342.89 278.11 345.39 277.61 345.39 277.61 342.89 276.3 342.89 277.08 341.54 277.44 340.92 276.3 340.92 277.08 339.56 277.34 339.11 276.3 339.11 277.08 337.76 277.86 336.41 278.64 337.76 279.42 339.11 278.38 339.11 278.64 339.56 279.42 340.92 278.27 340.92 278.27 340.92" fill="#003e8e" fill-rule="evenodd"/>
    <polygon points="163.93 310.64 164.29 311.27 165.07 312.62 163.76 312.62 163.76 315.12 163.27 315.12 163.27 312.62 161.96 312.62 162.74 311.27 163.1 310.64 161.96 310.64 162.74 309.29 163 308.84 161.96 308.84 162.74 307.49 163.51 306.14 164.29 307.49 165.07 308.84 164.03 308.84 164.29 309.29 165.07 310.64 163.93 310.64 163.93 310.64" fill="#003e8e" fill-rule="evenodd"/>
    <polygon points="195.52 314.78 195.89 315.41 196.66 316.76 195.35 316.76 195.35 319.26 194.86 319.26 194.86 316.76 193.55 316.76 194.33 315.41 194.69 314.78 193.55 314.78 194.33 313.43 194.59 312.98 193.55 312.98 194.33 311.63 195.11 310.28 195.89 311.63 196.66 312.98 195.63 312.98 195.89 313.43 196.66 314.78 195.52 314.78 195.52 314.78" fill="#003e8e" fill-rule="evenodd"/>
    <polygon points="203.95 314.97 204.31 315.59 205.09 316.94 203.78 316.94 203.78 319.44 203.29 319.44 203.29 316.94 201.98 316.94 202.75 315.59 203.12 314.97 201.98 314.97 202.75 313.62 203.02 313.17 201.98 313.17 202.75 311.82 203.53 310.47 204.31 311.82 205.09 313.17 204.06 313.17 204.31 313.62 205.09 314.97 203.95 314.97 203.95 314.97" fill="#003e8e" fill-rule="evenodd"/>
    <polygon points="175.32 310.25 175.68 310.88 176.46 312.23 175.15 312.23 175.15 314.73 174.65 314.73 174.65 312.23 173.34 312.23 174.12 310.88 174.48 310.25 173.34 310.25 174.12 308.9 174.38 308.45 173.34 308.45 174.12 307.1 174.9 305.75 175.68 307.1 176.46 308.45 175.42 308.45 175.68 308.9 176.46 310.25 175.32 310.25 175.32 310.25" fill="#003e8e" fill-rule="evenodd"/>
    <polygon points="326.41 351.83 326.77 352.46 327.55 353.81 326.24 353.81 326.24 356.31 325.74 356.31 325.74 353.81 324.43 353.81 325.21 352.46 325.57 351.83 324.43 351.83 325.21 350.48 325.47 350.03 324.43 350.03 325.21 348.68 325.99 347.33 326.77 348.68 327.55 350.03 326.51 350.03 326.77 350.48 327.55 351.83 326.41 351.83 326.41 351.83" fill="#003e8e" fill-rule="evenodd"/>
    <path d="M328.07,368.75s-.27-2.36.44-2.47l4.23-.6L331.8,369l-3.73-.27Z" transform="translate(0 -13.72)" fill="#003e8e" fill-rule="evenodd"/>
    <polygon points="263.71 336.32 264.07 336.94 264.85 338.3 263.54 338.3 263.54 340.8 263.04 340.8 263.04 338.3 261.73 338.3 262.51 336.94 262.88 336.32 261.73 336.32 262.51 334.97 262.77 334.52 261.73 334.52 262.51 333.17 263.29 331.82 264.07 333.17 264.85 334.52 263.81 334.52 264.07 334.97 264.85 336.32 263.71 336.32 263.71 336.32" fill="#003e8e" fill-rule="evenodd"/>
    <polygon points="266.58 335.97 266.94 336.6 267.72 337.95 266.41 337.95 266.41 340.45 265.92 340.45 265.92 337.95 264.61 337.95 265.38 336.6 265.75 335.97 264.61 335.97 265.38 334.62 265.64 334.17 264.61 334.17 265.38 332.82 266.16 331.47 266.94 332.82 267.72 334.17 266.68 334.17 266.94 334.62 267.72 335.97 266.58 335.97 266.58 335.97" fill="#003e8e" fill-rule="evenodd"/>
    <polygon points="283.33 341.29 283.69 341.92 284.47 343.27 283.16 343.27 283.16 345.77 282.66 345.77 282.66 343.27 281.35 343.27 282.13 341.92 282.5 341.29 281.35 341.29 282.13 339.94 282.39 339.49 281.35 339.49 282.13 338.14 282.91 336.79 283.69 338.14 284.47 339.49 283.43 339.49 283.69 339.94 284.47 341.29 283.33 341.29 283.33 341.29" fill="#003e8e" fill-rule="evenodd"/>
    <polygon points="216.58 322.29 216.94 322.92 217.72 324.27 216.41 324.27 216.41 326.77 215.92 326.77 215.92 324.27 214.61 324.27 215.38 322.92 215.75 322.29 214.61 322.29 215.38 320.94 215.65 320.49 214.61 320.49 215.38 319.14 216.16 317.79 216.94 319.14 217.72 320.49 216.69 320.49 216.94 320.94 217.72 322.29 216.58 322.29 216.58 322.29" fill="#003e8e" fill-rule="evenodd"/>
    <polygon points="219.46 321.94 219.82 322.57 220.6 323.92 219.28 323.92 219.28 326.42 218.79 326.42 218.79 323.92 217.48 323.92 218.26 322.57 218.62 321.94 217.48 321.94 218.26 320.59 218.52 320.14 217.48 320.14 218.26 318.79 219.04 317.44 219.82 318.79 220.6 320.14 219.56 320.14 219.82 320.59 220.6 321.94 219.46 321.94 219.46 321.94" fill="#003e8e" fill-rule="evenodd"/>
    <polygon points="236.2 327.26 236.56 327.89 237.34 329.24 236.03 329.24 236.03 331.74 235.54 331.74 235.54 329.24 234.23 329.24 235 327.89 235.37 327.26 234.23 327.26 235 325.92 235.26 325.46 234.23 325.46 235 324.11 235.78 322.76 236.56 324.11 237.34 325.46 236.3 325.46 236.56 325.92 237.34 327.26 236.2 327.26 236.2 327.26" fill="#003e8e" fill-rule="evenodd"/>
    <polygon points="218.04 323.02 218.4 323.65 219.18 325 217.87 325 217.87 327.5 217.37 327.5 217.37 325 216.06 325 216.84 323.65 217.2 323.02 216.06 323.02 216.84 321.68 217.1 321.23 216.06 321.23 216.84 319.88 217.62 318.52 218.4 319.88 219.18 321.23 218.14 321.23 218.4 321.68 219.18 323.02 218.04 323.02 218.04 323.02" fill="#003e8e" fill-rule="evenodd"/>
    <polygon points="220.91 322.68 221.27 323.3 222.05 324.65 220.74 324.65 220.74 327.15 220.24 327.15 220.24 324.65 218.93 324.65 219.71 323.3 220.07 322.68 218.93 322.68 219.71 321.33 219.97 320.88 218.93 320.88 219.71 319.52 220.49 318.18 221.27 319.52 222.05 320.88 221.01 320.88 221.27 321.33 222.05 322.68 220.91 322.68 220.91 322.68" fill="#003e8e" fill-rule="evenodd"/>
    <polygon points="237.66 328 238.02 328.62 238.8 329.97 237.49 329.97 237.49 332.47 236.99 332.47 236.99 329.97 235.68 329.97 236.46 328.62 236.82 328 235.68 328 236.46 326.65 236.72 326.2 235.68 326.2 236.46 324.85 237.24 323.5 238.02 324.85 238.8 326.2 237.76 326.2 238.02 326.65 238.8 328 237.66 328 237.66 328" fill="#003e8e" fill-rule="evenodd"/>
    <polygon points="223.09 323.4 223.45 324.03 224.23 325.38 222.92 325.38 222.92 327.88 222.43 327.88 222.43 325.38 221.12 325.38 221.89 324.03 222.26 323.4 221.12 323.4 221.89 322.05 222.16 321.6 221.12 321.6 221.89 320.25 222.67 318.9 223.45 320.25 224.23 321.6 223.19 321.6 223.45 322.05 224.23 323.4 223.09 323.4 223.09 323.4" fill="#003e8e" fill-rule="evenodd"/>
    <polygon points="225.96 323.06 226.32 323.68 227.1 325.03 225.79 325.03 225.79 327.53 225.3 327.53 225.3 325.03 223.99 325.03 224.77 323.68 225.13 323.06 223.99 323.06 224.77 321.7 225.03 321.25 223.99 321.25 224.77 319.9 225.54 318.55 226.32 319.9 227.1 321.25 226.06 321.25 226.32 321.7 227.1 323.06 225.96 323.06 225.96 323.06" fill="#003e8e" fill-rule="evenodd"/>
    <polygon points="242.71 328.38 243.07 329 243.85 330.35 242.54 330.35 242.54 332.85 242.04 332.85 242.04 330.35 240.74 330.35 241.51 329 241.88 328.38 240.74 328.38 241.51 327.03 241.77 326.58 240.74 326.58 241.51 325.23 242.29 323.88 243.07 325.23 243.85 326.58 242.81 326.58 243.07 327.03 243.85 328.38 242.71 328.38 242.71 328.38" fill="#003e8e" fill-rule="evenodd"/>
    <polygon points="360.65 349.2 361.01 349.82 361.79 351.18 360.48 351.18 360.48 353.68 359.99 353.68 359.99 351.18 358.68 351.18 359.45 349.82 359.82 349.2 358.68 349.2 359.45 347.85 359.71 347.4 358.68 347.4 359.45 346.05 360.23 344.7 361.01 346.05 361.79 347.4 360.75 347.4 361.01 347.85 361.79 349.2 360.65 349.2 360.65 349.2" fill="#003e8e" fill-rule="evenodd"/>
    <polygon points="363.52 348.85 363.88 349.48 364.67 350.83 363.35 350.83 363.35 353.32 362.86 353.32 362.86 350.83 361.55 350.83 362.33 349.48 362.69 348.85 361.55 348.85 362.33 347.5 362.59 347.05 361.55 347.05 362.33 345.7 363.11 344.35 363.88 345.7 364.67 347.05 363.63 347.05 363.88 347.5 364.67 348.85 363.52 348.85 363.52 348.85" fill="#003e8e" fill-rule="evenodd"/>
    <polygon points="377.81 346.13 378.17 346.75 378.95 348.1 377.64 348.1 377.64 350.6 377.14 350.6 377.14 348.1 375.83 348.1 376.61 346.75 376.97 346.13 375.83 346.13 376.61 344.78 376.87 344.33 375.83 344.33 376.61 342.98 377.39 341.63 378.17 342.98 378.95 344.33 377.91 344.33 378.17 344.78 378.95 346.13 377.81 346.13 377.81 346.13" fill="#003e8e" fill-rule="evenodd"/>
    <polygon points="362.11 349.93 362.47 350.56 363.25 351.91 361.94 351.91 361.94 354.41 361.44 354.41 361.44 351.91 360.13 351.91 360.91 350.56 361.27 349.93 360.13 349.93 360.91 348.58 361.17 348.13 360.13 348.13 360.91 346.78 361.69 345.43 362.47 346.78 363.25 348.13 362.21 348.13 362.47 348.58 363.25 349.93 362.11 349.93 362.11 349.93" fill="#003e8e" fill-rule="evenodd"/>
    <polygon points="364.98 349.58 365.34 350.21 366.12 351.56 364.81 351.56 364.81 354.06 364.31 354.06 364.31 351.56 363 351.56 363.78 350.21 364.14 349.58 363 349.58 363.78 348.23 364.04 347.78 363 347.78 363.78 346.43 364.56 345.08 365.34 346.43 366.12 347.78 365.08 347.78 365.34 348.23 366.12 349.58 364.98 349.58 364.98 349.58" fill="#003e8e" fill-rule="evenodd"/>
    <polygon points="379.26 346.86 379.62 347.49 380.4 348.84 379.09 348.84 379.09 351.34 378.59 351.34 378.59 348.84 377.28 348.84 378.06 347.49 378.42 346.86 377.28 346.86 378.06 345.51 378.32 345.06 377.28 345.06 378.06 343.71 378.84 342.36 379.62 343.71 380.4 345.06 379.36 345.06 379.62 345.51 380.4 346.86 379.26 346.86 379.26 346.86" fill="#003e8e" fill-rule="evenodd"/>
    <polygon points="367.16 350.31 367.52 350.94 368.3 352.29 366.99 352.29 366.99 354.79 366.49 354.79 366.49 352.29 365.18 352.29 365.96 350.94 366.32 350.31 365.18 350.31 365.96 348.96 366.22 348.51 365.18 348.51 365.96 347.16 366.74 345.81 367.52 347.16 368.3 348.51 367.26 348.51 367.52 348.96 368.3 350.31 367.16 350.31 367.16 350.31" fill="#003e8e" fill-rule="evenodd"/>
    <polygon points="370.03 349.96 370.39 350.59 371.17 351.94 369.86 351.94 369.86 354.44 369.37 354.44 369.37 351.94 368.06 351.94 368.83 350.59 369.2 349.96 368.06 349.96 368.83 348.61 369.1 348.16 368.06 348.16 368.83 346.81 369.61 345.46 370.39 346.81 371.17 348.16 370.13 348.16 370.39 348.61 371.17 349.96 370.03 349.96 370.03 349.96" fill="#003e8e" fill-rule="evenodd"/>
    <polygon points="384.31 347.24 384.68 347.86 385.46 349.21 384.14 349.21 384.14 351.71 383.65 351.71 383.65 349.21 382.34 349.21 383.12 347.86 383.48 347.24 382.34 347.24 383.12 345.89 383.38 345.44 382.34 345.44 383.12 344.09 383.9 342.74 384.68 344.09 385.46 345.44 384.42 345.44 384.68 345.89 385.46 347.24 384.31 347.24 384.31 347.24" fill="#003e8e" fill-rule="evenodd"/>
    <path d="M150.85,322.22a1.43,1.43,0,1,1,1.31-1.9,1,1,0,1,1-.58,1.9v2.22h-.73v-2.22Z" transform="translate(0 -13.72)" fill="#003e8e" fill-rule="evenodd"/>
    <path d="M206.62,331.07a2.26,2.26,0,1,0,.73,0v2.22h-.73v-2.22Z" transform="translate(0 -13.72)" fill="#003e8e" fill-rule="evenodd"/>
    <path d="M246.09,340a2.26,2.26,0,1,0,.73,0v2.22h-.73V340Z" transform="translate(0 -13.72)" fill="#003e8e" fill-rule="evenodd"/>
    <path d="M208.64,332.32a2.26,2.26,0,1,0,.73,0v2.22h-.73v-2.22Z" transform="translate(0 -13.72)" fill="#003e8e" fill-rule="evenodd"/>
    <path d="M248.11,341.25a2.26,2.26,0,1,0,.73,0v2.22h-.73v-2.22Z" transform="translate(0 -13.72)" fill="#003e8e" fill-rule="evenodd"/>
    <path d="M286.58,355.81a2.26,2.26,0,1,0,.73,0V358h-.73v-2.22Z" transform="translate(0 -13.72)" fill="#003e8e" fill-rule="evenodd"/>
    <path d="M315.88,364.57a2.26,2.26,0,1,0,.73,0v2.22h-.73v-2.22Z" transform="translate(0 -13.72)" fill="#003e8e" fill-rule="evenodd"/>
    <path d="M386.38,356a2.26,2.26,0,1,0,.73,0v2.22h-.73V356Z" transform="translate(0 -13.72)" fill="#003e8e" fill-rule="evenodd"/>
    <path d="M357.95,364.9a2.26,2.26,0,1,0,.73,0v2.22h-.73V364.9Z" transform="translate(0 -13.72)" fill="#003e8e" fill-rule="evenodd"/>
    <path d="M481.44,281.68a2.26,2.26,0,1,0,.73,0v2.22h-.73v-2.22Z" transform="translate(0 -13.72)" fill="#1a65a7" fill-rule="evenodd"/>
    <polygon points="477.62 267.41 477.99 268.03 478.76 269.38 477.45 269.38 477.45 271.88 476.96 271.88 476.96 269.38 475.65 269.38 476.43 268.03 476.79 267.41 475.65 267.41 476.43 266.06 476.69 265.61 475.65 265.61 476.43 264.25 477.21 262.9 477.99 264.25 478.76 265.61 477.73 265.61 477.99 266.06 478.76 267.41 477.62 267.41 477.62 267.41" fill="#1a65a7" fill-rule="evenodd"/>
    <polygon points="3.26 167.08 3.63 167.71 4.4 169.06 3.09 169.06 3.09 171.56 2.6 171.56 2.6 169.06 1.29 169.06 2.06 167.71 2.43 167.08 1.29 167.08 2.06 165.73 2.33 165.28 1.29 165.28 2.06 163.93 2.85 162.58 3.63 163.93 4.4 165.28 3.37 165.28 3.63 165.73 4.4 167.08 3.26 167.08 3.26 167.08" fill="#1a65a7" fill-rule="evenodd"/>
    <path d="M9.23,181.7a1,1,0,1,1-.76-1.89,1,1,0,0,1,2.07,0,1,1,0,1,1-.58,1.9v2.22H9.23V181.7Z" transform="translate(0 -13.72)" fill="#1a65a7" fill-rule="evenodd"/>
    <polygon points="273.27 249.43 273.63 250.05 274.41 251.4 273.1 251.4 273.1 253.9 272.6 253.9 272.6 251.4 271.29 251.4 272.07 250.05 272.43 249.43 271.29 249.43 272.07 248.08 272.33 247.63 271.29 247.63 272.07 246.28 272.85 244.93 273.63 246.28 274.41 247.63 273.37 247.63 273.63 248.08 274.41 249.43 273.27 249.43 273.27 249.43" fill="#1a65a7" fill-rule="evenodd"/>
    <path d="M279.24,265.36a2.26,2.26,0,1,0,.73,0v2.22h-.73v-2.22Z" transform="translate(0 -13.72)" fill="#1a65a7" fill-rule="evenodd"/>
    <polygon points="275.42 251.09 275.79 251.72 276.56 253.07 275.25 253.07 275.25 255.57 274.76 255.57 274.76 253.07 273.45 253.07 274.23 251.72 274.59 251.09 273.45 251.09 274.23 249.74 274.49 249.29 273.45 249.29 274.23 247.94 275 246.59 275.79 247.94 276.56 249.29 275.52 249.29 275.79 249.74 276.56 251.09 275.42 251.09 275.42 251.09" fill="#1a65a7" fill-rule="evenodd"/>
    <path d="M281.39,267a2.26,2.26,0,1,0,.73,0v2.22h-.73V267Z" transform="translate(0 -13.72)" fill="#1a65a7" fill-rule="evenodd"/>
    <polygon points="294.94 251.13 295.3 251.75 296.08 253.1 294.77 253.1 294.77 255.6 294.27 255.6 294.27 253.1 292.96 253.1 293.74 251.75 294.1 251.13 292.96 251.13 293.74 249.78 294 249.33 292.96 249.33 293.74 247.98 294.52 246.63 295.3 247.98 296.08 249.33 295.04 249.33 295.3 249.78 296.08 251.13 294.94 251.13 294.94 251.13" fill="#1a65a7" fill-rule="evenodd"/>
    <path d="M308.2,267.06a2.26,2.26,0,1,0,.73,0v2.22h-.73v-2.22Z" transform="translate(0 -13.72)" fill="#1a65a7" fill-rule="evenodd"/>
    <polygon points="304.39 252.79 304.75 253.42 305.53 254.77 304.22 254.77 304.22 257.27 303.72 257.27 303.72 254.77 302.41 254.77 303.19 253.42 303.55 252.79 302.41 252.79 303.19 251.44 303.45 250.99 302.41 250.99 303.19 249.64 303.97 248.29 304.75 249.64 305.53 250.99 304.49 250.99 304.75 251.44 305.53 252.79 304.39 252.79 304.39 252.79" fill="#1a65a7" fill-rule="evenodd"/>
    <path d="M299.67,268.73a2.26,2.26,0,1,0,.73,0V271h-.73v-2.22Z" transform="translate(0 -13.72)" fill="#1a65a7" fill-rule="evenodd"/>
    <polygon points="389.63 260.02 389.99 260.64 390.77 261.99 389.46 261.99 389.46 264.49 388.97 264.49 388.97 261.99 387.65 261.99 388.43 260.64 388.8 260.02 387.65 260.02 388.43 258.67 388.69 258.22 387.65 258.22 388.43 256.87 389.21 255.52 389.99 256.87 390.77 258.22 389.73 258.22 389.99 258.67 390.77 260.02 389.63 260.02 389.63 260.02" fill="#1a65a7" fill-rule="evenodd"/>
    <path d="M395.6,276a2.26,2.26,0,1,0,.73,0v2.22h-.73V276Z" transform="translate(0 -13.72)" fill="#1a65a7" fill-rule="evenodd"/>
    <polygon points="391.79 261.68 392.15 262.31 392.93 263.66 391.62 263.66 391.62 266.16 391.12 266.16 391.12 263.66 389.81 263.66 390.59 262.31 390.95 261.68 389.81 261.68 390.59 260.33 390.85 259.88 389.81 259.88 390.59 258.53 391.37 257.18 392.15 258.53 392.93 259.88 391.89 259.88 392.15 260.33 392.93 261.68 391.79 261.68 391.79 261.68" fill="#1a65a7" fill-rule="evenodd"/>
    <path d="M397.76,277.62a2.27,2.27,0,1,0,.73,0v2.22h-.73v-2.22Z" transform="translate(0 -13.72)" fill="#1a65a7" fill-rule="evenodd"/>
    <polygon points="411.31 261.72 411.67 262.34 412.45 263.69 411.13 263.69 411.13 266.19 410.64 266.19 410.64 263.69 409.33 263.69 410.11 262.34 410.47 261.72 409.33 261.72 410.11 260.37 410.37 259.92 409.33 259.92 410.11 258.57 410.89 257.22 411.67 258.57 412.45 259.92 411.41 259.92 411.67 260.37 412.45 261.72 411.31 261.72 411.31 261.72" fill="#1a65a7" fill-rule="evenodd"/>
    <path d="M424.57,277.65a2.26,2.26,0,1,0,.73,0v2.22h-.73v-2.22Z" transform="translate(0 -13.72)" fill="#1a65a7" fill-rule="evenodd"/>
    <polygon points="420.75 263.38 421.11 264.01 421.89 265.36 420.58 265.36 420.58 267.86 420.09 267.86 420.09 265.36 418.77 265.36 419.56 264.01 419.92 263.38 418.77 263.38 419.56 262.03 419.81 261.58 418.77 261.58 419.56 260.23 420.33 258.88 421.11 260.23 421.89 261.58 420.85 261.58 421.11 262.03 421.89 263.38 420.75 263.38 420.75 263.38" fill="#1a65a7" fill-rule="evenodd"/>
    <path d="M416,279.32a2.26,2.26,0,1,0,.73,0v2.22H416v-2.22Z" transform="translate(0 -13.72)" fill="#1a65a7" fill-rule="evenodd"/>
    <polygon points="299.57 253.22 299.93 253.84 300.71 255.19 299.4 255.19 299.4 257.69 298.9 257.69 298.9 255.19 297.59 255.19 298.37 253.84 298.73 253.22 297.59 253.22 298.37 251.87 298.63 251.41 297.59 251.41 298.37 250.06 299.15 248.71 299.93 250.06 300.71 251.41 299.67 251.41 299.93 251.87 300.71 253.22 299.57 253.22 299.57 253.22" fill="#1a65a7" fill-rule="evenodd"/>
    <path d="M305.54,269.15a2.26,2.26,0,1,0,.73,0v2.22h-.73v-2.22Z" transform="translate(0 -13.72)" fill="#1a65a7" fill-rule="evenodd"/>
    <polygon points="301.73 254.88 302.09 255.5 302.87 256.85 301.56 256.85 301.56 259.35 301.06 259.35 301.06 256.85 299.75 256.85 300.53 255.5 300.89 254.88 299.75 254.88 300.53 253.53 300.79 253.08 299.75 253.08 300.53 251.73 301.31 250.38 302.09 251.73 302.87 253.08 301.83 253.08 302.09 253.53 302.87 254.88 301.73 254.88 301.73 254.88" fill="#1a65a7" fill-rule="evenodd"/>
    <path d="M307.7,270.81a2.26,2.26,0,1,0,.73,0V273h-.73v-2.22Z" transform="translate(0 -13.72)" fill="#1a65a7" fill-rule="evenodd"/>
    <polygon points="321.24 254.92 321.61 255.54 322.38 256.89 321.07 256.89 321.07 259.39 320.58 259.39 320.58 256.89 319.27 256.89 320.05 255.54 320.41 254.92 319.27 254.92 320.05 253.56 320.31 253.12 319.27 253.12 320.05 251.76 320.82 250.41 321.61 251.76 322.38 253.12 321.34 253.12 321.61 253.56 322.38 254.92 321.24 254.92 321.24 254.92" fill="#1a65a7" fill-rule="evenodd"/>
    <path d="M334.5,270.85a2.26,2.26,0,1,0,.73,0v2.22h-.73v-2.22Z" transform="translate(0 -13.72)" fill="#1a65a7" fill-rule="evenodd"/>
    <polygon points="330.69 256.58 331.05 257.2 331.83 258.55 330.52 258.55 330.52 261.05 330.02 261.05 330.02 258.55 328.71 258.55 329.49 257.2 329.86 256.58 328.71 256.58 329.49 255.23 329.75 254.78 328.71 254.78 329.49 253.43 330.27 252.08 331.05 253.43 331.83 254.78 330.79 254.78 331.05 255.23 331.83 256.58 330.69 256.58 330.69 256.58" fill="#1a65a7" fill-rule="evenodd"/>
    <path d="M326,272.51a2.26,2.26,0,1,0,.73,0v2.22H326v-2.22Z" transform="translate(0 -13.72)" fill="#1a65a7" fill-rule="evenodd"/>
    <polygon points="405.88 263 406.24 263.63 407.02 264.98 405.71 264.98 405.71 267.48 405.21 267.48 405.21 264.98 403.9 264.98 404.68 263.63 405.04 263 403.9 263 404.68 261.65 404.94 261.2 403.9 261.2 404.68 259.85 405.46 258.5 406.24 259.85 407.02 261.2 405.98 261.2 406.24 261.65 407.02 263 405.88 263 405.88 263" fill="#1a65a7" fill-rule="evenodd"/>
    <path d="M411.85,278.94a2.26,2.26,0,1,0,.73,0v2.22h-.73v-2.22Z" transform="translate(0 -13.72)" fill="#1a65a7" fill-rule="evenodd"/>
    <polygon points="408.03 264.66 408.4 265.29 409.18 266.64 407.87 266.64 407.87 269.14 407.37 269.14 407.37 266.64 406.06 266.64 406.84 265.29 407.2 264.66 406.06 264.66 406.84 263.31 407.1 262.86 406.06 262.86 406.84 261.51 407.62 260.16 408.4 261.51 409.18 262.86 408.14 262.86 408.4 263.31 409.18 264.66 408.03 264.66 408.03 264.66" fill="#1a65a7" fill-rule="evenodd"/>
    <path d="M414,280.6a2.26,2.26,0,1,0,.73,0v2.22H414V280.6Z" transform="translate(0 -13.72)" fill="#1a65a7" fill-rule="evenodd"/>
    <polygon points="427.55 264.7 427.91 265.33 428.69 266.68 427.38 266.68 427.38 269.18 426.88 269.18 426.88 266.68 425.57 266.68 426.35 265.33 426.71 264.7 425.57 264.7 426.35 263.35 426.61 262.9 425.57 262.9 426.35 261.55 427.13 260.2 427.91 261.55 428.69 262.9 427.65 262.9 427.91 263.35 428.69 264.7 427.55 264.7 427.55 264.7" fill="#1a65a7" fill-rule="evenodd"/>
    <path d="M440.81,280.64a2.27,2.27,0,1,0,.73,0v2.22h-.73v-2.22Z" transform="translate(0 -13.72)" fill="#1a65a7" fill-rule="evenodd"/>
    <polygon points="437 266.37 437.36 266.99 438.14 268.34 436.83 268.34 436.83 270.84 436.33 270.84 436.33 268.34 435.02 268.34 435.8 266.99 436.16 266.37 435.02 266.37 435.8 265.01 436.06 264.56 435.02 264.56 435.8 263.21 436.58 261.86 437.36 263.21 438.14 264.56 437.1 264.56 437.36 265.01 438.14 266.37 437 266.37 437 266.37" fill="#1a65a7" fill-rule="evenodd"/>
    <path d="M432.28,282.3a2.26,2.26,0,1,0,.73,0v2.22h-.73V282.3Z" transform="translate(0 -13.72)" fill="#1a65a7" fill-rule="evenodd"/>
    <polygon points="446.5 264.04 446.87 264.67 447.64 266.02 446.33 266.02 446.33 268.52 445.84 268.52 445.84 266.02 444.53 266.02 445.31 264.67 445.67 264.04 444.53 264.04 445.31 262.69 445.57 262.24 444.53 262.24 445.31 260.89 446.08 259.54 446.87 260.89 447.64 262.24 446.61 262.24 446.87 262.69 447.64 264.04 446.5 264.04 446.5 264.04" fill="#1a65a7" fill-rule="evenodd"/>
    <path d="M452.47,280a2.27,2.27,0,1,0,.73,0v2.22h-.73V280Z" transform="translate(0 -13.72)" fill="#1a65a7" fill-rule="evenodd"/>
    <polygon points="448.66 265.71 449.02 266.33 449.8 267.68 448.49 267.68 448.49 270.18 448 270.18 448 267.68 446.68 267.68 447.46 266.33 447.82 265.71 446.68 265.71 447.46 264.36 447.72 263.91 446.68 263.91 447.46 262.56 448.24 261.2 449.02 262.56 449.8 263.91 448.76 263.91 449.02 264.36 449.8 265.71 448.66 265.71 448.66 265.71" fill="#1a65a7" fill-rule="evenodd"/>
    <path d="M454.63,281.64a2.26,2.26,0,1,0,.73,0v2.22h-.73v-2.22Z" transform="translate(0 -13.72)" fill="#1a65a7" fill-rule="evenodd"/>
    <polygon points="468.18 265.74 468.54 266.37 469.32 267.72 468.01 267.72 468.01 270.22 467.51 270.22 467.51 267.72 466.2 267.72 466.98 266.37 467.34 265.74 466.2 265.74 466.98 264.39 467.24 263.94 466.2 263.94 466.98 262.59 467.76 261.24 468.54 262.59 469.32 263.94 468.28 263.94 468.54 264.39 469.32 265.74 468.18 265.74 468.18 265.74" fill="#1a65a7" fill-rule="evenodd"/>
    <path d="M472.91,283.34a2.27,2.27,0,1,0,.73,0v2.22h-.73v-2.22Z" transform="translate(0 -13.72)" fill="#1a65a7" fill-rule="evenodd"/>
    <polygon points="344.4 258.38 344.76 259 345.54 260.36 344.23 260.36 344.23 262.86 343.73 262.86 343.73 260.36 342.42 260.36 343.2 259 343.56 258.38 342.42 258.38 343.2 257.03 343.46 256.58 342.42 256.58 343.2 255.23 343.98 253.88 344.76 255.23 345.54 256.58 344.5 256.58 344.76 257.03 345.54 258.38 344.4 258.38 344.4 258.38" fill="#1a65a7" fill-rule="evenodd"/>
    <path d="M350.37,274.31a2.26,2.26,0,1,0,.73,0v2.22h-.73v-2.22Z" transform="translate(0 -13.72)" fill="#1a65a7" fill-rule="evenodd"/>
    <polygon points="346.56 260.04 346.92 260.67 347.7 262.02 346.39 262.02 346.39 264.52 345.89 264.52 345.89 262.02 344.58 262.02 345.36 260.67 345.72 260.04 344.58 260.04 345.36 258.69 345.62 258.24 344.58 258.24 345.36 256.89 346.14 255.54 346.92 256.89 347.7 258.24 346.66 258.24 346.92 258.69 347.7 260.04 346.56 260.04 346.56 260.04" fill="#1a65a7" fill-rule="evenodd"/>
    <path d="M352.53,276a2.27,2.27,0,1,0,.73,0v2.22h-.73V276Z" transform="translate(0 -13.72)" fill="#1a65a7" fill-rule="evenodd"/>
    <polygon points="366.07 260.08 366.43 260.7 367.21 262.06 365.9 262.06 365.9 264.56 365.4 264.56 365.4 262.06 364.09 262.06 364.87 260.7 365.23 260.08 364.09 260.08 364.87 258.73 365.13 258.28 364.09 258.28 364.87 256.93 365.65 255.58 366.43 256.93 367.21 258.28 366.17 258.28 366.43 258.73 367.21 260.08 366.07 260.08 366.07 260.08" fill="#1a65a7" fill-rule="evenodd"/>
    <path d="M379.33,276a2.27,2.27,0,1,0,.73,0v2.22h-.73V276Z" transform="translate(0 -13.72)" fill="#1a65a7" fill-rule="evenodd"/>
    <polygon points="375.52 261.74 375.88 262.37 376.66 263.72 375.35 263.72 375.35 266.22 374.85 266.22 374.85 263.72 373.54 263.72 374.32 262.37 374.68 261.74 373.54 261.74 374.32 260.39 374.58 259.94 373.54 259.94 374.32 258.59 375.1 257.24 375.88 258.59 376.66 259.94 375.62 259.94 375.88 260.39 376.66 261.74 375.52 261.74 375.52 261.74" fill="#1a65a7" fill-rule="evenodd"/>
    <path d="M370.8,277.68a2.27,2.27,0,1,0,.73,0v2.22h-.73v-2.22Z" transform="translate(0 -13.72)" fill="#1a65a7" fill-rule="evenodd"/>
    <polygon points="209.25 225.03 209.61 225.65 210.39 227 209.08 227 209.08 229.5 208.58 229.5 208.58 227 207.27 227 208.05 225.65 208.41 225.03 207.27 225.03 208.05 223.68 208.31 223.23 207.27 223.23 208.05 221.88 208.83 220.53 209.61 221.88 210.39 223.23 209.35 223.23 209.61 223.68 210.39 225.03 209.25 225.03 209.25 225.03" fill="#1a65a7" fill-rule="evenodd"/>
    <path d="M199.94,235.77a2.26,2.26,0,1,0,.73,0V238h-.73v-2.22Z" transform="translate(0 -13.72)" fill="#1a65a7" fill-rule="evenodd"/>
    <polygon points="233.21 234.7 233.57 235.33 234.35 236.68 233.04 236.68 233.04 239.18 232.54 239.18 232.54 236.68 231.23 236.68 232.01 235.33 232.37 234.7 231.23 234.7 232.01 233.35 232.27 232.9 231.23 232.9 232.01 231.55 232.79 230.2 233.57 231.55 234.35 232.9 233.31 232.9 233.57 233.35 234.35 234.7 233.21 234.7 233.21 234.7" fill="#1a65a7" fill-rule="evenodd"/>
    <path d="M223.91,245.44a2.26,2.26,0,1,0,.73,0v2.22h-.73v-2.22Z" transform="translate(0 -13.72)" fill="#1a65a7" fill-rule="evenodd"/>
    <polygon points="605.54 290.28 605.9 290.9 606.68 292.25 605.37 292.25 605.37 294.75 604.87 294.75 604.87 292.25 603.56 292.25 604.34 290.9 604.7 290.28 603.56 290.28 604.34 288.93 604.6 288.48 603.56 288.48 604.34 287.13 605.12 285.78 605.9 287.13 606.68 288.48 605.64 288.48 605.9 288.93 606.68 290.28 605.54 290.28 605.54 290.28" fill="#4682b8" fill-rule="evenodd"/>
    <path d="M625.29,317.86a2.27,2.27,0,1,0,.73,0v2.22h-.73v-2.22Z" transform="translate(0 -13.72)" fill="#4682b8" fill-rule="evenodd"/>
    <polygon points="609.2 294.82 609.57 295.45 610.34 296.8 609.03 296.8 609.03 299.3 608.54 299.3 608.54 296.8 607.23 296.8 608 295.45 608.37 294.82 607.23 294.82 608 293.47 608.26 293.02 607.23 293.02 608 291.67 608.78 290.32 609.57 291.67 610.34 293.02 609.3 293.02 609.57 293.47 610.34 294.82 609.2 294.82 609.2 294.82" fill="#4682b8" fill-rule="evenodd"/>
    <path d="M615.09,314.74a2.27,2.27,0,1,0,.73,0V317h-.73v-2.22Z" transform="translate(0 -13.72)" fill="#4682b8" fill-rule="evenodd"/>
    <polygon points="623.16 302.57 623.52 303.2 624.3 304.55 622.99 304.55 622.99 307.05 622.49 307.05 622.49 304.55 621.18 304.55 621.96 303.2 622.32 302.57 621.18 302.57 621.96 301.22 622.22 300.77 621.18 300.77 621.96 299.42 622.74 298.07 623.52 299.42 624.3 300.77 623.26 300.77 623.52 301.22 624.3 302.57 623.16 302.57 623.16 302.57" fill="#4682b8" fill-rule="evenodd"/>
    <path d="M650.15,331.45a2.26,2.26,0,1,0,.73,0v2.22h-.73v-2.22Z" transform="translate(0 -13.72)" fill="#4682b8" fill-rule="evenodd"/>
    <polygon points="644.96 315.21 645.32 315.83 646.1 317.18 644.79 317.18 644.79 319.68 644.29 319.68 644.29 317.18 642.98 317.18 643.76 315.83 644.12 315.21 642.98 315.21 643.76 313.86 644.02 313.41 642.98 313.41 643.76 312.06 644.54 310.71 645.32 312.06 646.1 313.41 645.06 313.41 645.32 313.86 646.1 315.21 644.96 315.21 644.96 315.21" fill="#4682b8" fill-rule="evenodd"/>
    <path d="M618.17,313a2.27,2.27,0,1,0,.73,0v2.22h-.73V313Z" transform="translate(0 -13.72)" fill="#4682b8" fill-rule="evenodd"/>
    <polygon points="685.85 332.44 686.21 333.06 686.99 334.41 685.68 334.41 685.68 336.91 685.18 336.91 685.18 334.41 683.87 334.41 684.65 333.06 685.01 332.44 683.87 332.44 684.65 331.09 684.91 330.64 683.87 330.64 684.65 329.29 685.43 327.94 686.21 329.29 686.99 330.64 685.95 330.64 686.21 331.09 686.99 332.44 685.85 332.44 685.85 332.44" fill="#4682b8" fill-rule="evenodd"/>
    <path d="M682.25,346.64a2.26,2.26,0,1,0,.73,0v2.22h-.73v-2.22Z" transform="translate(0 -13.72)" fill="#4682b8" fill-rule="evenodd"/>
    <polygon points="689.51 334.86 689.87 335.48 690.65 336.83 689.34 336.83 689.34 339.33 688.84 339.33 688.84 336.83 687.53 336.83 688.31 335.48 688.67 334.86 687.53 334.86 688.31 333.51 688.57 333.06 687.53 333.06 688.31 331.7 689.09 330.36 689.87 331.7 690.65 333.06 689.61 333.06 689.87 333.51 690.65 334.86 689.51 334.86 689.51 334.86" fill="#4682b8" fill-rule="evenodd"/>
    <path d="M695.39,354.77a2.26,2.26,0,1,0,.73,0V357h-.73v-2.22Z" transform="translate(0 -13.72)" fill="#4682b8" fill-rule="evenodd"/>
    <polygon points="703.47 342.61 703.83 343.24 704.61 344.58 703.29 344.58 703.29 347.08 702.8 347.08 702.8 344.58 701.49 344.58 702.27 343.24 702.63 342.61 701.49 342.61 702.27 341.26 702.53 340.81 701.49 340.81 702.27 339.46 703.05 338.11 703.83 339.46 704.61 340.81 703.57 340.81 703.83 341.26 704.61 342.61 703.47 342.61 703.47 342.61" fill="#4682b8" fill-rule="evenodd"/>
    <path d="M730.45,371.48a2.26,2.26,0,1,0,.73,0v2.22h-.73v-2.22Z" transform="translate(0 -13.72)" fill="#4682b8" fill-rule="evenodd"/>
    <polygon points="725.26 352.54 725.63 353.17 726.4 354.52 725.09 354.52 725.09 357.02 724.6 357.02 724.6 354.52 723.29 354.52 724.07 353.17 724.43 352.54 723.29 352.54 724.07 351.19 724.33 350.74 723.29 350.74 724.07 349.39 724.85 348.04 725.63 349.39 726.4 350.74 725.37 350.74 725.63 351.19 726.4 352.54 725.26 352.54 725.26 352.54" fill="#4682b8" fill-rule="evenodd"/>
    <path d="M698.48,353a2.27,2.27,0,1,0,.73,0v2.22h-.73V353Z" transform="translate(0 -13.72)" fill="#4682b8" fill-rule="evenodd"/>
    <polygon points="482.46 356.9 482.82 357.53 483.6 358.88 482.29 358.88 482.29 361.38 481.79 361.38 481.79 358.88 480.48 358.88 481.26 357.53 481.62 356.9 480.48 356.9 481.26 355.55 481.52 355.1 480.48 355.1 481.26 353.75 482.04 352.4 482.82 353.75 483.6 355.1 482.56 355.1 482.82 355.55 483.6 356.9 482.46 356.9 482.46 356.9" fill="#00549d" fill-rule="evenodd"/>
    <path d="M489.31,374.49a2.27,2.27,0,1,0,.73,0v2.22h-.73v-2.22Z" transform="translate(0 -13.72)" fill="#00549d" fill-rule="evenodd"/>
    <polygon points="539.59 383.63 539.96 384.26 540.74 385.61 539.42 385.61 539.42 388.11 538.93 388.11 538.93 385.61 537.62 385.61 538.4 384.26 538.76 383.63 537.62 383.63 538.4 382.28 538.66 381.83 537.62 381.83 538.4 380.48 539.18 379.13 539.96 380.48 540.74 381.83 539.7 381.83 539.96 382.28 540.74 383.63 539.59 383.63 539.59 383.63" fill="#00549d" fill-rule="evenodd"/>
    <path d="M546.44,401.22a2.26,2.26,0,1,0,.73,0v2.22h-.73v-2.22Z" transform="translate(0 -13.72)" fill="#00549d" fill-rule="evenodd"/>
    <polygon points="486.11 360.01 486.47 360.63 487.25 361.99 485.94 361.99 485.94 364.49 485.44 364.49 485.44 361.99 484.13 361.99 484.91 360.63 485.27 360.01 484.13 360.01 484.91 358.66 485.17 358.21 484.13 358.21 484.91 356.86 485.69 355.51 486.47 356.86 487.25 358.21 486.21 358.21 486.47 358.66 487.25 360.01 486.11 360.01 486.11 360.01" fill="#00549d" fill-rule="evenodd"/>
    <path d="M493,377.6a2.26,2.26,0,1,0,.73,0v2.22H493V377.6Z" transform="translate(0 -13.72)" fill="#00549d" fill-rule="evenodd"/>
    <polygon points="621.48 415.06 621.85 415.68 622.63 417.03 621.31 417.03 621.31 419.53 620.82 419.53 620.82 417.03 619.51 417.03 620.29 415.68 620.65 415.06 619.51 415.06 620.29 413.71 620.55 413.26 619.51 413.26 620.29 411.91 621.07 410.56 621.85 411.91 622.63 413.26 621.59 413.26 621.85 413.71 622.63 415.06 621.48 415.06 621.48 415.06" fill="#00549d" fill-rule="evenodd"/>
    <path d="M607.44,426.41a2.26,2.26,0,1,0,.73,0v2.22h-.73v-2.22Z" transform="translate(0 -13.72)" fill="#00549d" fill-rule="evenodd"/>
    <polygon points="477.65 233 478.01 233.63 478.79 234.98 477.48 234.98 477.48 237.48 476.99 237.48 476.99 234.98 475.67 234.98 476.45 233.63 476.81 233 475.67 233 476.45 231.65 476.71 231.2 475.67 231.2 476.45 229.85 477.23 228.5 478.01 229.85 478.79 231.2 477.75 231.2 478.01 231.65 478.79 233 477.65 233 477.65 233" fill="#3f75a6" fill-rule="evenodd"/>
    <path d="M491.87,245.48a2.26,2.26,0,1,0,.73,0v2.22h-.73v-2.22Z" transform="translate(0 -13.72)" fill="#3f75a6" fill-rule="evenodd"/>
    <polygon points="646.4 176.71 646.76 177.33 647.54 178.68 646.23 178.68 646.23 181.18 645.73 181.18 645.73 178.68 644.42 178.68 645.2 177.33 645.56 176.71 644.42 176.71 645.2 175.36 645.46 174.91 644.42 174.91 645.2 173.56 645.98 172.21 646.76 173.56 647.54 174.91 646.5 174.91 646.76 175.36 647.54 176.71 646.4 176.71 646.4 176.71" fill="#3f75a6" fill-rule="evenodd"/>
    <path d="M638.43,194.61a2.26,2.26,0,1,0,.73,0v2.22h-.73v-2.22Z" transform="translate(0 -13.72)" fill="#3f75a6" fill-rule="evenodd"/>
    <path d="M664,184.19a2.26,2.26,0,1,0,.73,0v2.22H664v-2.22Z" transform="translate(0 -13.72)" fill="#3f75a6" fill-rule="evenodd"/>
    <path d="M597.49,212.07a2.26,2.26,0,1,0,.73,0v2.22h-.73v-2.22Z" transform="translate(0 -13.72)" fill="#3f75a6" fill-rule="evenodd"/>
    <polygon points="650.94 172.73 651.3 173.35 652.08 174.7 650.77 174.7 650.77 177.2 650.28 177.2 650.28 174.7 648.97 174.7 649.75 173.35 650.11 172.73 648.97 172.73 649.75 171.38 650 170.93 648.97 170.93 649.75 169.57 650.52 168.22 651.3 169.57 652.08 170.93 651.04 170.93 651.3 171.38 652.08 172.73 650.94 172.73 650.94 172.73" fill="#3f75a6" fill-rule="evenodd"/>
    <path d="M643,192.6a2.27,2.27,0,1,0,.73,0v2.22H643V192.6Z" transform="translate(0 -13.72)" fill="#3f75a6" fill-rule="evenodd"/>
    <path d="M668.57,182.18a2.26,2.26,0,1,0,.73,0v2.22h-.73v-2.22Z" transform="translate(0 -13.72)" fill="#3f75a6" fill-rule="evenodd"/>
    <path d="M602,210.07a2.26,2.26,0,1,0,.73,0v2.22H602v-2.22Z" transform="translate(0 -13.72)" fill="#3f75a6" fill-rule="evenodd"/>
    <polygon points="731.48 136.44 731.84 137.07 732.62 138.42 731.31 138.42 731.31 140.92 730.81 140.92 730.81 138.42 729.5 138.42 730.28 137.07 730.64 136.44 729.5 136.44 730.28 135.09 730.54 134.64 729.5 134.64 730.28 133.29 731.06 131.94 731.84 133.29 732.62 134.64 731.58 134.64 731.84 135.09 732.62 136.44 731.48 136.44 731.48 136.44" fill="#3f75a6" fill-rule="evenodd"/>
    <path d="M723.5,156.32a2.27,2.27,0,1,0,.73,0v2.22h-.73v-2.22Z" transform="translate(0 -13.72)" fill="#3f75a6" fill-rule="evenodd"/>
    <path d="M749.1,140.64a2.26,2.26,0,1,0,.73,0v2.22h-.73v-2.22Z" transform="translate(0 -13.72)" fill="#3f75a6" fill-rule="evenodd"/>
    <path d="M682.57,173.79a2.27,2.27,0,1,0,.73,0V176h-.73v-2.22Z" transform="translate(0 -13.72)" fill="#3f75a6" fill-rule="evenodd"/>
  </g>
</svg>
