<svg xmlns="http://www.w3.org/2000/svg" viewBox="0 0 106 106">
  <title>bullseye</title>
  <g id="Layer_2" data-name="Layer 2">
    <g id="Icons">
      <path d="M-29.94-176.1A33.6,33.6,0,0,0-47-180.73,33.73,33.73,0,0,0-80.73-147,33.73,33.73,0,0,0-47-113.27,33.73,33.73,0,0,0-13.27-147,33.59,33.59,0,0,0-18-164.18h0l-7.11,7.11A23.9,23.9,0,0,1-22.91-147,24.09,24.09,0,0,1-47-122.91,24.1,24.1,0,0,1-71.09-147,24.09,24.09,0,0,1-47-171.09,24,24,0,0,1-37.08-169Zm-14.82,14.82a13.82,13.82,0,0,0-2.24-.17A14.45,14.45,0,0,0-61.45-147,14.45,14.45,0,0,0-47-132.55,14.45,14.45,0,0,0-32.55-147a15.28,15.28,0,0,0-.2-2.45L-41-141.16a8.43,8.43,0,0,1-11.92,0,8.41,8.41,0,0,1,0-11.92Zm44-11.64-7.14,7.14A43.24,43.24,0,0,1-3.64-147,43.36,43.36,0,0,1-47-103.64,43.36,43.36,0,0,1-90.36-147,43.36,43.36,0,0,1-47-190.36a43.32,43.32,0,0,1,18.62,4.18l7.15-7.15A52.8,52.8,0,0,0-47-200a53,53,0,0,0-53,53A53,53,0,0,0-47-94,53,53,0,0,0,6-147,52.79,52.79,0,0,0-.76-172.92Zm-23.89-1.66-24.91,24.9a3.62,3.62,0,0,0,0,5.11,3.62,3.62,0,0,0,5.11,0l24.91-24.9,7.45,1.06,17-17L-7-187.14l-1.7-11.93-17,17Z" transform="translate(100 200)" style="fill: #35b729;fill-rule: evenodd"/>
    </g>
  </g>
</svg>
