<svg xmlns="http://www.w3.org/2000/svg" viewBox="0 0 103.28 106">
  <title>business</title>
  <g id="Layer_2" data-name="Layer 2">
    <g id="Icons">
      <path d="M0,106H21.74V89.69H0ZM81.54,35.33V106h21.74V35.33ZM27.18,106H48.92V51.64H27.18Zm27.18,0H76.1V73.38H54.36ZM10.87,70.67a8.15,8.15,0,0,0,5.78-13.9l17.84-25a8.1,8.1,0,0,0,9-1.25L58.1,42.26A8.15,8.15,0,1,0,71,40.45l17.82-25a8.13,8.13,0,1,0-2.21-1.58l-17.83,25a8.1,8.1,0,0,0-9,1.26L45.17,28.43a8.15,8.15,0,1,0-12.9,1.79l-17.84,25a8.15,8.15,0,1,0-3.56,15.48ZM92.41,2.72a5.44,5.44,0,1,1-1,10.78h0a5.43,5.43,0,0,1-3.16-1.86h0a5.45,5.45,0,0,1-.49-.7l-.06-.09a5.39,5.39,0,0,1-.35-.74l0-.13a5.36,5.36,0,0,1-.22-.8l0-.12a5.4,5.4,0,0,1,5.36-6.33ZM59.83,45.63h0v0A5.39,5.39,0,0,1,60.27,44h0a5.4,5.4,0,0,1,.31-.58l0-.05A5.46,5.46,0,0,1,62,41.87h0a5.37,5.37,0,0,1,4.26-1h0a5.43,5.43,0,0,1,3.15,1.84h0a5.43,5.43,0,0,1,.5.71l0,.08a5.4,5.4,0,0,1,.36.76l0,.12a5.39,5.39,0,0,1,.22.82l0,.11a5.43,5.43,0,1,1-10.76.33ZM38.05,19a5.44,5.44,0,0,1,5.44,5.44,5.53,5.53,0,0,1,0,.58v.08c0,.17,0,.33-.08.49v0a5.4,5.4,0,0,1-.35,1h0a5.45,5.45,0,0,1-1.7,2.12h0a5.42,5.42,0,0,1-1.48.79l-.05,0a5.41,5.41,0,0,1-.77.2l-.14,0a5.33,5.33,0,0,1-4.39-1.28h0a5.49,5.49,0,0,1-.4-.39h0a5.42,5.42,0,0,1-.36-.43h0A5.41,5.41,0,0,1,33,26.36l0-.07h0a5.38,5.38,0,0,1-.23-.85v-.08h0A5.41,5.41,0,0,1,38.05,19ZM10.87,57.08a5.45,5.45,0,0,1,1,.09h0a5.45,5.45,0,0,1,3.65,2.56l0,.08a5.42,5.42,0,0,1,.36.75l0,.12a5.37,5.37,0,0,1,.22.81l0,.11a5.43,5.43,0,1,1-5.36-4.54Z" fill="#35b729" fill-rule="evenodd"/>
    </g>
  </g>
</svg>
