<svg xmlns="http://www.w3.org/2000/svg" viewBox="0 0 308.85 376.5">
  <title>contact</title>
  <g id="Layer_2" data-name="Layer 2">
    <g id="Layer_1-2" data-name="Layer 1">
      <g>
        <g>
          <path d="M307.89,146.55a0,0,0,0,0,0-.07c-.45-4.82-1.05-9.72-1.85-14.66-.36-2.38-.73-4.61-1.1-6.26h0C293.61,66.78,255.07,4.73,154.74,0h-1C53.94,4.73,15.41,66.79,4,125.57l-.07,0c-.6,2.71-1.23,7-1.75,10.92q-.61,4.34-1,8.63c-.08.72-.13,1.2-.15,1.38H1c-3.76,39.85,3.68,74.58,10.74,83.6,3.59,9.73,3.61,26.38,3.61,26.38S47.14,326.5,54.83,330.6s2.06,6.08,12.81,5.06a9.63,9.63,0,0,0,3.69-1h.08a.77.77,0,0,0,.74-.55c3.88-3.14-.4-9.77-.4-9.77l-.48-1c4.23,7.77,7.17,12.62,7.65,12,3.49-1,17.86,2,23.74-.4a5.24,5.24,0,0,0,2.21-1.82,23.54,23.54,0,0,0,6-.69,24,24,0,0,0,14.48-9.73,2.65,2.65,0,0,0,2.6-.94h0c2.46-3,1-12-.55-15.28,0,0-32.79-81.11-62-106.55a4.61,4.61,0,0,0-6.16.2,4.33,4.33,0,0,0-.33.31s-6.85-1.26-14.43,7A34.47,34.47,0,0,0,40.59,212c-.76.15-2.08.91-2,1.05-3.22,1.62-5.68,5.14-7.5,8.78,0,0,.51,5.6-1.18,19.34l-.7-1.39c-14.48-37.51-19-68.87-16.78-95,.6-5.88,1.69-12.54,2.18-15.42C32.21,42.29,129.81,21.72,153.71,24.54a5.19,5.19,0,0,0,1.53,0C179,21.73,275.63,42.05,294,127.92h0s2.24,12.42,2.75,20.62h0c1.5,25.36-3.25,55.52-17.05,91.26l-3.85,7.65,3-6.12c-1.71-13.83-1.2-19.47-1.2-19.47-1.82-3.64-4.27-7.16-7.5-8.78.08-.14-1.23-.9-2-1.05a34.48,34.48,0,0,0-3.91-4.48c-7.58-8.29-14.43-7-14.43-7a4.35,4.35,0,0,0-.33-.31,64.27,64.27,0,0,0-5.15,4.75,64.26,64.26,0,0,1,5.15-4.75,4.61,4.61,0,0,0-6.16-.2c-29.2,25.44-62,106.55-62,106.55-1.51,3.29-3,12.29-.55,15.28a2.65,2.65,0,0,0,2.6.94,24,24,0,0,0,14.48,9.73,23.54,23.54,0,0,0,6,.69,5.24,5.24,0,0,0,2.21,1.82c5.88,2.44,20.25-.62,23.74.4.57.71,4.64-6.3,10.21-16.78l-2.86,5.68s-3,4.62-1.71,8l-10.81,20.41a23,23,0,0,1-23.82,11.94l-30.48-4.75a16,16,0,1,0-2.92,9.87l31.82,5a33.15,33.15,0,0,0,34.41-17.24l11.45-21.62c5.51.1,2.44-1.9,9-5.38,7.68-4.1,39.45-74.28,39.45-74.28s-.19-16.38,3.39-26.11C304,221.05,311.56,186.37,307.89,146.55Z" fill="#000000"/>
          <path d="M1,146.56v-.08C.92,146.51,1,146.56,1,146.56Z" fill="#000000"/>
        </g>
        <path d="M241.33,127.23a87.52,87.52,0,0,0-8.83-34.9q-1.87-3.82-4.09-7.43a88.2,88.2,0,0,0-71.46-42c-1.23-.06-2.47-.08-3.71-.08s-2.48,0-3.71.08a88.2,88.2,0,0,0-71.46,42Q75.85,88.5,74,92.33a87.41,87.41,0,0,0-8.84,34.9c-.06,1.23-.08,2.47-.08,3.71s0,2.48.08,3.71A87.41,87.41,0,0,0,74,169.56q1.86,3.82,4.08,7.43a88.24,88.24,0,0,0,66.15,41.66c1.75.19,3.53.31,5.31.39,1.23.06,2.47.08,3.71.08s2.48,0,3.71-.08c1.78-.07,3.56-.2,5.31-.39A88.24,88.24,0,0,0,228.41,177q2.22-3.6,4.09-7.43a87.52,87.52,0,0,0,8.83-34.9c.06-1.23.08-2.47.08-3.71S241.39,128.47,241.33,127.23ZM219.54,84.9H199.73a95.89,95.89,0,0,0-7.34-15.22,68.7,68.7,0,0,0-11.5-14.6A81.13,81.13,0,0,1,219.54,84.9Zm-19.2,42.33H157V92.33h37.53A125.4,125.4,0,0,1,200.33,127.23Zm-5.52,42.33H157v-34.9h43.41A126.38,126.38,0,0,1,194.81,169.56Zm-88.69-34.9h43.41v34.9H111.67A126.39,126.39,0,0,1,106.12,134.66ZM112,92.33h37.53v34.9H106.15A125.4,125.4,0,0,1,112,92.33Zm37.53-7.43H114.74a85.51,85.51,0,0,1,5.71-11.4c8-13.32,18.22-21.26,29.07-22.73ZM186,73.5a85.51,85.51,0,0,1,5.71,11.4H157V50.77C167.81,52.24,178,60.19,186,73.5ZM125.59,55.09a68.47,68.47,0,0,0-11.5,14.59,95.91,95.91,0,0,0-7.34,15.22H86.95A81.07,81.07,0,0,1,125.59,55.09ZM82.34,92.33h21.88a134.06,134.06,0,0,0-5.5,34.9H72.58A80.07,80.07,0,0,1,82.34,92.33Zm-9.76,42.33H98.69a135.28,135.28,0,0,0,5.22,34.9H82.34A80.06,80.06,0,0,1,72.58,134.66ZM86.95,177h19.42a96.43,96.43,0,0,0,7.72,16.25,70.8,70.8,0,0,0,9.82,12.94A81.13,81.13,0,0,1,86.95,177Zm33.51,12.42A86.71,86.71,0,0,1,114.32,177h35.21V211.6c-1.31-.06-2.61-.15-3.9-.27C136.23,208.68,127.49,201.13,120.45,189.41ZM157,211.6V177h35.21A86.7,86.7,0,0,1,186,189.41c-7,11.71-15.78,19.26-25.18,21.92C159.56,211.46,158.26,211.54,157,211.6Zm25.61-5.43a70.49,70.49,0,0,0,9.83-12.94A96.42,96.42,0,0,0,200.12,177h19.42A81.11,81.11,0,0,1,182.57,206.18Zm41.57-36.61H202.57a135.27,135.27,0,0,0,5.22-34.9H233.9A80.06,80.06,0,0,1,224.14,169.56Zm-16.38-42.33a134.07,134.07,0,0,0-5.5-34.9h21.88a80.06,80.06,0,0,1,9.76,34.9Z" fill="#000000"/>
      </g>
    </g>
  </g>
</svg>
