<svg xmlns="http://www.w3.org/2000/svg" viewBox="0 0 81.19 106">
  <title>icon-stopwatch</title>
  <g id="Layer_2" data-name="Layer 2">
    <g id="Icons">
      <path d="M63.75,32.06l2.89-5-5.86-3.38-2.89,5a40.3,40.3,0,0,0-10.7-3.33,13.53,13.53,0,1,0-13.21,0A40.3,40.3,0,0,0,23.3,28.67l-2.89-5L23.34,22,20,16.12,8.24,22.89l3.38,5.86,2.93-1.69,2.89,5a40.6,40.6,0,1,0,46.31,0ZM29.32,13.53A11.28,11.28,0,1,1,44,24.29V19.17h3.38V12.4H33.83v6.77h3.38v5.12A11.28,11.28,0,0,1,29.32,13.53ZM40.6,99.23A33.83,33.83,0,1,1,74.43,65.4,33.83,33.83,0,0,1,40.6,99.23Zm0-63.15V65.4H69.91A29.32,29.32,0,0,0,40.6,36.09ZM73,22.89,61.24,16.12,57.85,22l11.72,6.77Z" fill="#FFFFFF" fill-rule="evenodd"/>
    </g>
  </g>
</svg>
