<svg xmlns="http://www.w3.org/2000/svg" viewBox="0 0 106 88.12">
  <title>risk</title>
  <g id="Layer_2" data-name="Layer 2">
    <g id="Icons">
      <path d="M77.92,16l-3.39-3.82A12.77,12.77,0,1,0,83,8.94V14A7.67,7.67,0,1,1,77.92,16Zm-58.77-.66a7.66,7.66,0,1,0-7.66-7.66A7.66,7.66,0,0,0,19.16,15.33ZM70.24,40.87H95.78V38.31H70.24ZM29.37,23l28.1-1.28V16.6H24.27a10,10,0,0,1-5.11,1.28A10,10,0,0,1,14,16.6H10.22c-5.11,0-5.11,5.11-5.11,5.11L0,47.25H5.11l5.11-20.43v23L8.94,88.12h6.39l3.83-38.31L23,88.12h6.39L28.1,49.81V24.39A1.41,1.41,0,0,1,29.37,23Zm61.3,29.37H35.76v2.55H90.67ZM98.34,1.28H35.76V5.11H98.34a3.83,3.83,0,0,1,3.83,3.83V62.58a3.83,3.83,0,0,1-3.83,3.83H35.76v3.83H56.41L51,75.66l-8.1,8.1a2.55,2.55,0,0,0,3.61,3.61L57.34,76.54l.13-.13v9.16a2.55,2.55,0,1,0,5.11,0V76.41l.13.13L73.54,87.37a2.55,2.55,0,0,0,3.61-3.61l-8.1-8.1-5.42-5.42h34.7A7.66,7.66,0,0,0,106,62.58V8.94A7.66,7.66,0,0,0,98.34,1.28ZM35.76,49.81H85.57V47.25H35.76Zm0,10.22H77.9V57.47H35.76Z" fill="#000000" fill-rule="evenodd"/>
    </g>
  </g>
</svg>
