<svg xmlns="http://www.w3.org/2000/svg" viewBox="0 0 106 55.52">
  <title>benchmark</title>
  <g id="Layer_2" data-name="Layer 2">
    <g id="Icons">
      <path d="M57.73,40.38H83.29a7.57,7.57,0,0,1,7.45-7.57V12.62A7.57,7.57,0,0,1,83.29,5H57.73a20.19,20.19,0,0,1,0,35.33ZM78.24,17.67a5,5,0,1,1-5,5A5,5,0,0,1,78.24,17.67ZM43,22.19a40.73,40.73,0,0,0,3.64,2.46,4.15,4.15,0,0,1,1.88,1.84,10,10,0,0,1,.27,2.8,2,2,0,0,1-.29,1.17,1,1,0,0,1-.88.4.81.81,0,0,1-.88-.57,13.41,13.41,0,0,1-.18-2.92V25.94H40.72v1.14q0,3.89,1.75,5.46a7,7,0,0,0,4.09,1.79V36.6h2.69V34.41a6.91,6.91,0,0,0,4.51-2.19,7.32,7.32,0,0,0,1.5-4.89,8.31,8.31,0,0,0-.56-3.25,5.54,5.54,0,0,0-1.37-2,23.49,23.49,0,0,0-3-2.05,21.42,21.42,0,0,1-3.15-2.13A2.67,2.67,0,0,1,46.61,16a2.28,2.28,0,0,1,.27-1.23.89.89,0,0,1,.8-.41.84.84,0,0,1,.87.48,6.29,6.29,0,0,1,.2,2v1h5.84q.06-.74.06-1.1a5.75,5.75,0,0,0-1.35-4,6.4,6.4,0,0,0-4.05-1.81V9H46.56v1.86a7.29,7.29,0,0,0-4.45,1.83,5.54,5.54,0,0,0-1.48,4.09,7.22,7.22,0,0,0,.7,3.23A6.5,6.5,0,0,0,43,22.19ZM101,2.52H98.43V48H2.52v2.52H101ZM95.9,0H0V45.43H95.9ZM93.38,42.9H2.52V2.52H93.38ZM12.62,40.38H38.17A20.19,20.19,0,0,1,38.17,5H12.62A7.57,7.57,0,0,1,5,12.62V32.81A7.57,7.57,0,0,1,12.62,40.38Zm5-22.71a5,5,0,1,1-5,5A5,5,0,0,1,17.67,17.67ZM103.48,5V53H5v2.52H106V5Z" fill="#35b729" fill-rule="evenodd"/>
    </g>
  </g>
</svg>
