<svg id="Capa_1" data-name="Capa 1" xmlns="http://www.w3.org/2000/svg" viewBox="0 0 351.1 248.42">
  <title>piggy-green</title>
  <path d="M337.58,119.06h-6.76c-6.15-16-22.14-41.81-58.42-44.27,0,0,8-7.38,6.76-14.76s-4.92-12.3-11.07-13.53H264.4c-6.76,0-20.29,3.08-35,21.52A100.58,100.58,0,0,0,198,49.58a29.85,29.85,0,0,0,4.3-16,32.59,32.59,0,0,0-65.18,0A31.17,31.17,0,0,0,139,44c-49.81,9.23-86.09,51-86.09,100.23v1.84H41.2c-1.23-9.83-8-22.13-19.06-24.59-5.54-1.23-9.84,0-12.3,3.69s-2.46,8.6,0,13.53c3.69,7.37,9.84,12.3,19.68,14.76-.62,1.22-1.85,3.07-6.15,3.07a37.84,37.84,0,0,1-11.07-1.85,32,32,0,0,0-6.77-1.22c-3.68,0-5.53,1.83-5.53,3.68s.62,4.3,4.92,5.54a56.58,56.58,0,0,0,17.22,3.07c7.38,0,16.6-1.85,19.06-11.07H54.11l.61,4.31c1.23,6.77,3.08,9.22,4.93,12.3,1.22,1.84,3.07,3.69,4.91,7.38L62.1,227.9c0,13.52,4.92,20.9,15.38,20.9H92.85c14.76,0,18.45-27.05,19.06-32l1.84.62c11.07,3.08,31.36,9.23,50.43,9.23,17.21,0,41.2-5.53,52.26-8,1.23,9.84,8,30.75,25.22,30.75h9.83c31.36,0,20.91-21.52,20.91-21.52l-9.84-21.52h6.77c19.67,0,35-6.76,48.57-22.14h19.68a13.64,13.64,0,0,0,13.52-13.53V133.82C351.1,125.21,345,119.06,337.58,119.06ZM28.9,142.43c-2.46,1.23-10.45-9.23-8-11.07C23.37,130.13,31.36,141.81,28.9,142.43ZM170.33,12.07a21.79,21.79,0,0,1,21.52,21.52,21.52,21.52,0,1,1-43,0A21.38,21.38,0,0,1,170.33,12.07Zm34.43,73.79a6.68,6.68,0,0,1-4.31,1.84,5.58,5.58,0,0,1-4.91-2.46c-3.07-3.69-13.53-7.38-26.44-7.38s-23.37,3.69-26.44,7.38c-3.69,3.08-8,3.08-10.46.62-3.07-2.46-3.07-6.77-.61-9.84,6.76-7.38,20.9-11.68,36.89-11.68s30.13,4.3,36.9,11.68A7.47,7.47,0,0,1,204.76,85.86Zm94.69,41.81c-3.69,0-6.76-4.3-6.76-9.84s3.07-9.84,6.76-9.84,6.77,4.31,6.77,9.84S303.15,127.67,299.45,127.67Z" transform="translate(0 -1)" style="fill: #35b729"/>
</svg>
