<svg xmlns="http://www.w3.org/2000/svg" viewBox="0 0 436.21 359.47">
  <title>users</title>
  <g id="Layer_2" data-name="Layer 2">
    <g id="Layer_1-2" data-name="Layer 1">
      <g>
        <g>
          <g>
            <path d="M137.57,312.18a47.37,47.37,0,0,0-8.57-3.3c-27.58-5.9-34.37-18.09-35.26-19.95-.12-.26-.27-.5-.39-.75-1.3-2.61-1.06-6.07-.15-9.55,5.25-3.82,8.9-9.3,11.39-15.72,7.78-.44,14-8.18,14-15.83a14.26,14.26,0,0,0-9.19-13.22c0-1.06,0-2.11,0-3.16,0-25.69-16-36.31-35.65-36.31S38.13,205,38.13,230.7c0,1.18,0,2.38.06,3.57a14.23,14.23,0,0,0-8.25,12.81c0,7.58,6.09,15.25,13.78,15.82,2.68,6.38,6.46,11.84,11.57,15.66.93,3.51,1.18,7-.13,9.62-.13.25-.27.49-.39.75-.89,1.86-7.68,14.05-35.26,19.95a47.3,47.3,0,0,0-8.58,3.3A19.83,19.83,0,0,0,0,329.88v25.63a4,4,0,0,0,4,4H144.48a4,4,0,0,0,4-4V329.88A19.84,19.84,0,0,0,137.57,312.18Z" style="fill: #35b729"/>
            <path d="M425.27,312.18a47.06,47.06,0,0,0-8.57-3.3c-27.58-5.9-34.37-18.09-35.26-19.95-.12-.26-.27-.5-.39-.75-1.3-2.61-1.06-6.07-.15-9.55,5.25-3.82,8.9-9.3,11.39-15.72,7.78-.44,14-8.18,14-15.83a14.26,14.26,0,0,0-9.19-13.22c0-1.06,0-2.11,0-3.16,0-25.69-16-36.31-35.65-36.31S325.83,205,325.83,230.7c0,1.18,0,2.38.06,3.57a14.23,14.23,0,0,0-8.25,12.81c0,7.58,6.09,15.25,13.78,15.82,2.68,6.38,6.46,11.84,11.57,15.66.93,3.51,1.18,7-.13,9.62-.12.25-.27.49-.39.75-.89,1.86-7.68,14.05-35.26,19.95a47.3,47.3,0,0,0-8.58,3.3,19.83,19.83,0,0,0-10.93,17.7v25.63a4,4,0,0,0,4,4H432.18a4,4,0,0,0,4-4V329.88A19.84,19.84,0,0,0,425.27,312.18Z" style="fill: #35b729"/>
          </g>
          <path d="M281.42,117.79a47.37,47.37,0,0,0-8.57-3.3c-27.58-5.89-34.37-18.09-35.26-19.95-.12-.25-.27-.5-.39-.75-1.3-2.61-1.06-6.06-.15-9.54,5.25-3.82,8.9-9.31,11.39-15.72,7.78-.45,14-8.19,14-15.84a14.26,14.26,0,0,0-9.19-13.22c0-1.06,0-2.11,0-3.16,0-25.69-16-36.31-35.65-36.31S182,10.62,182,36.31q0,1.78.06,3.57a14.23,14.23,0,0,0-8.25,12.81c0,7.59,6.09,15.25,13.78,15.82,2.68,6.38,6.46,11.84,11.57,15.66.93,3.51,1.18,7-.13,9.62-.12.25-.27.5-.39.75-.89,1.86-7.68,14.06-35.26,19.95a47.3,47.3,0,0,0-8.58,3.3,19.84,19.84,0,0,0-10.93,17.71v25.63a4,4,0,0,0,4,4H288.33a4,4,0,0,0,4-4V135.5A19.84,19.84,0,0,0,281.42,117.79Z" style="fill: #35b729"/>
        </g>
        <path d="M137.53,298.39l-5.33-3.08,3.84-6.65,5.33,3.08Zm7.68-13.3L139.88,282l3.84-6.65,5.32,3.08Zm7.67-13.29-5.33-3.08,3.84-6.65,5.33,3.08Zm7.68-13.3-5.33-3.07,3.84-6.65,5.33,3.08Zm7.67-13.29-5.33-3.08,3.84-6.65,5.33,3.08Zm7.68-13.3-5.33-3.07,3.84-6.65,5.33,3.08Zm7.68-13.29-5.33-3.08,3.83-6.65,5.33,3.08Zm7.67-13.3-5.33-3.07,3.84-6.65,5.33,3.07ZM198.94,192,193.61,189l3.84-6.65,5.33,3.08Z" style="fill: #35b729"/>
        <path d="M298.68,298.39l-3.84-6.65,5.33-3.08,3.84,6.65ZM291,285.09l-3.84-6.64,5.33-3.08,3.84,6.65Zm-7.68-13.29-3.83-6.65,5.33-3.08,3.83,6.65Zm-7.67-13.3-3.84-6.65,5.33-3.07,3.84,6.65ZM268,245.21l-3.84-6.65,5.33-3.08,3.84,6.65Zm-7.67-13.3-3.84-6.65,5.33-3.07,3.84,6.64Zm-7.68-13.29L248.78,212l5.33-3.08,3.84,6.65ZM245,205.32l-3.84-6.65,5.33-3.07,3.83,6.65ZM237.27,192l-3.84-6.65,5.33-3.08L242.6,189Z" style="fill: #35b729"/>
        <path d="M283.35,334.39h-7.68v-6.16h7.68Zm-15.35,0h-7.68v-6.16H268Zm-15.36,0H245v-6.16h7.67Zm-15.35,0h-7.67v-6.16h7.67Zm-15.35,0h-7.67v-6.16h7.67Zm-15.35,0h-7.68v-6.16h7.68Zm-15.35,0h-7.68v-6.16h7.68Zm-15.35,0h-7.68v-6.16h7.68Zm-15.36,0h-7.67v-6.16h7.67Z" style="fill: #35b729"/>
      </g>
    </g>
  </g>
</svg>
